<?xml version="1.0" encoding="utf-8"?>
<!-- Generator: Adobe Illustrator 16.0.0, SVG Export Plug-In . SVG Version: 6.00 Build 0)  -->
<!DOCTYPE svg PUBLIC "-//W3C//DTD SVG 1.1//EN" "http://www.w3.org/Graphics/SVG/1.1/DTD/svg11.dtd">
<svg version="1.1" id="Capa_1" xmlns="http://www.w3.org/2000/svg" xmlns:xlink="http://www.w3.org/1999/xlink" x="0px" y="0px"
	 width="55px" height="50px" viewBox="0 0 55 50" enable-background="new 0 0 55 50" xml:space="preserve">
<g>
	<path fill="#FFFFFF" d="M35,38.25c0,1.65-1.35,3-3,3h-9c-1.65,0-3-1.35-3-3v-9c0-1.65,1.35-3,3-3h9c1.65,0,3,1.35,3,3V38.25z"/>
</g>
<g>
	<path fill="#FFFFFF" d="M55,38.25c0,1.65-1.35,3-3,3h-9c-1.65,0-3-1.35-3-3v-9c0-1.65,1.35-3,3-3h9c1.65,0,3,1.35,3,3V38.25z"/>
</g>
<g>
	<path fill="#FFFFFF" d="M15,38.25c0,1.65-1.35,3-3,3H3c-1.65,0-3-1.35-3-3v-9c0-1.65,1.35-3,3-3h9c1.65,0,3,1.35,3,3V38.25z"/>
</g>
<g>
	<path fill="#FFFFFF" d="M35,18.25c0,1.65-1.35,3-3,3h-9c-1.65,0-3-1.35-3-3v-9c0-1.65,1.35-3,3-3h9c1.65,0,3,1.35,3,3V18.25z"/>
</g>
</svg>
