<svg width="24" height="24" xmlns="http://www.w3.org/2000/svg">

 <g>
  <title>background</title>
  <rect fill="none" id="canvas_background" height="402" width="582" y="-1" x="-1"/>
 </g>
 <g>
  <title>Layer 1</title>
  <polygon id="svg_2" points="10.3338013,10.5126343 9.0803223,10.5126343 9.0803223,9.9890137 10.3041382,9.9890137    10.3041382,9.4516602 9.0803223,9.4516602 9.0803223,8.9793701 10.3338013,8.9793701 10.3338013,8.4332275 8.5449829,8.4332275    8.5449829,11.0548096 10.3338013,11.0548096  " fill="#f0f2ef"/>
  <path id="svg_3" fill="#f0f2ef" d="m11.24152,10.10181l0.57415,0c0.19287,0 0.31232,0.02002 0.39038,0.11187c0.09729,0.12604 0.08436,0.35267 0.08436,0.51044l0.0025,0.33069l0.54028,0l0,-0.51532c0,-0.23395 -0.01294,-0.35022 -0.08893,-0.48065c-0.0476,-0.07617 -0.14782,-0.16852 -0.26513,-0.22077c0.13946,-0.06451 0.37744,-0.28088 0.37744,-0.69848c0,-0.29261 -0.10187,-0.46356 -0.27057,-0.58081c-0.17371,-0.11725 -0.37537,-0.12555 -0.64887,-0.12555l-1.23175,0l0,2.62158l0.53614,0l0,-0.953zm-0.00043,-1.12195l0.65973,0c0.09271,0 0.19043,0.00537 0.2539,0.04736c0.06928,0.03809 0.11231,0.1192 0.11231,0.23151c0,0.11432 -0.04132,0.20666 -0.11023,0.24914c-0.07434,0.05225 -0.16119,0.05371 -0.26514,0.05371l-0.651,0l0.00043,-0.58172z"/>
  <path id="svg_4" fill="#f0f2ef" d="m6.81885,11.0553l0.77667,-2.05298l0.00208,2.05298l0.54907,0l0,-2.62158l-0.8927,0l-0.64344,1.7785l-0.70105,-1.7785l-0.87438,0l0,2.48236l-0.9115,-2.48236l-0.79499,0l-0.9591,2.62158l0.58166,0l0.20789,-0.58466l1.11487,0l0.20587,0.58466l1.08978,0l0,-2.05493l0.77789,2.05444l0.47138,0.00049zm-3.46894,-1.13129l0.36408,-1.0448l0.36621,1.0448l-0.73029,0z"/>
  <path id="svg_5" fill="#f0f2ef" d="m14.93512,9.46045c-0.00501,0.00836 -0.0426,0.1026 -0.0426,0.2843c0,0.17975 0.02466,0.26624 0.0426,0.3053c0.0188,0.00586 0.05347,0.01269 0.10522,0.01269l0.23218,-0.63452l-0.18292,0c-0.00189,0 -0.00385,0 -0.00568,0c-0.12085,0 -0.1336,0.01544 -0.1488,0.03223z"/>
  <rect id="svg_6" y="8.433716" x="13.166809" width="0.54657" height="2.621582" fill="#f0f2ef"/>
  <path id="svg_7" fill="#f0f2ef" d="m15.03955,11.0553l0.62714,0l0.20123,-0.58466l1.11237,0l0.20874,0.58466l1.09021,0l0,-1.96753l1.01635,1.96753l0.75824,0l0,-2.62158l-0.54779,0l0,1.82586l-0.94201,-1.82586l-0.81549,0l0,2.47943l-0.90687,-2.47943l-0.80212,0l-0.75659,2.06134l-0.24011,0c-0.13983,0 -0.29102,-0.03125 -0.37329,-0.13532c-0.10059,-0.1319 -0.1474,-0.33459 -0.1474,-0.61499c0,-0.27545 0.06225,-0.48358 0.15368,-0.59393c0.10608,-0.12116 0.21588,-0.15534 0.41254,-0.15534l0.50732,0l0,-0.56176l-0.51819,0c-0.36908,0 -0.64093,0.09625 -0.81335,0.30529c-0.22968,0.28089 -0.28857,0.63648 -0.28857,1.02527c0,0.47626 0.09857,0.77814 0.28729,1.00086c0.18622,0.22229 0.51568,0.28967 0.77667,0.29016zm1.38788,-2.17609l0.37122,1.0448l-0.73908,0l0.36786,-1.0448z"/>
  <path id="svg_8" fill="#f0f2ef" d="m11.84381,12.94562c-0.00073,0 -0.00152,0 -0.00152,0l-1.71186,0l-0.68146,0.85876l-0.65972,-0.85876l-2.15369,0l0,2.62158l2.12158,0l0.68561,-0.86798l0.65973,0.86798l1.04089,0l0,-0.87921l0.66809,0c0.46808,0 0.93238,-0.15045 0.93238,-0.87872c0,-0.72461 -0.47559,-0.86365 -0.90003,-0.86365zm-3.35766,2.07599l-1.31611,0l0,-0.52167l1.17536,0l0,-0.53534l-1.17536,0l0,-0.47675l1.34241,0l0.58582,0.76343l-0.61212,0.77033zm2.12365,0.30725l-0.82257,-1.06879l0.82257,-1.03357l0,2.10236zm1.22626,-1.17377l-0.00122,0l-0.69147,0l0,-0.66772l0.69818,0c0.19373,0 0.32733,0.09228 0.32733,0.3219c0,0.22619 -0.12725,0.34582 -0.33282,0.34582z"/>
  <path id="svg_9" fill="#f0f2ef" d="m15.15308,13.65051c0,-0.29895 -0.10645,-0.46307 -0.27472,-0.58227c-0.17707,-0.10987 -0.37415,-0.12311 -0.64514,-0.12311l-1.23633,0l0,2.62158l0.53778,0l0,-0.9574l0.57208,0c0.19537,0 0.31439,0.02253 0.39288,0.11628c0.09937,0.12213 0.08643,0.35559 0.08643,0.51336l0,0.32776l0.53741,0l0,-0.51971c-0.0017,-0.23102 -0.01257,-0.35022 -0.08898,-0.47821c-0.04505,-0.07618 -0.14319,-0.1695 -0.26178,-0.22028c0.14031,-0.065 0.37957,-0.27844 0.38037,-0.698zm-0.70313,0.3722c-0.07184,0.0498 -0.16077,0.05419 -0.26514,0.05419l-0.65094,0l0,-0.58905l0.65973,0c0.09436,0 0.19037,0.00245 0.2555,0.04737c0.06933,0.04248 0.11065,0.12408 0.11065,0.2359c0,0.11188 -0.04132,0.20276 -0.1098,0.25159z"/>
  <path id="svg_10" fill="#f0f2ef" d="m18.6701,13.97388l-0.28771,-0.00977c-0.09144,0 -0.15156,-0.00683 -0.20874,-0.02984c-0.06727,-0.02979 -0.11695,-0.0962 -0.11695,-0.19538c0,-0.08301 0.02173,-0.14606 0.081,-0.18902c0.05346,-0.04248 0.11651,-0.04737 0.21466,-0.04737l0.98205,0l0,-0.55786l-1.07312,0c-0.56201,0 -0.76575,0.3996 -0.76575,0.78058c0,0.82892 0.62757,0.79181 1.12781,0.81085c0.09394,0 0.14984,0.01807 0.1908,0.05811c0.0376,0.03711 0.06512,0.09674 0.06512,0.1734c0,0.07135 -0.02588,0.13092 -0.06262,0.17096c-0.0451,0.04986 -0.11731,0.065 -0.21838,0.065l-1.03888,0l0,0.5622l1.04303,0c0.53991,0 0.84179,-0.26331 0.84179,-0.82746c0,-0.2691 -0.05633,-0.42932 -0.16076,-0.55536c-0.12317,-0.14264 -0.32276,-0.20074 -0.61335,-0.20904z"/>
  <path id="svg_11" fill="#f0f2ef" d="m20.85846,13.97388l-0.28815,-0.00977c-0.09057,0 -0.15112,-0.00683 -0.20874,-0.02984c-0.0664,-0.02979 -0.11651,-0.0962 -0.11651,-0.19538c0,-0.08301 0.02172,-0.14606 0.08062,-0.18902c0.05384,-0.04248 0.11731,-0.04737 0.21503,-0.04737l0.98248,0l0,-0.55786l-1.07391,0c-0.56122,0 -0.76581,0.3996 -0.76581,0.78058c0,0.82892 0.62799,0.79181 1.1286,0.81085c0.09357,0 0.14911,0.01807 0.19086,0.05811c0.03674,0.03711 0.0647,0.09674 0.0647,0.1734c0,0.07135 -0.02631,0.13092 -0.0622,0.17096c-0.04553,0.04986 -0.11773,0.065 -0.21881,0.065l-1.03845,0l0,0.5622l1.04303,0c0.53992,0 0.84094,-0.26331 0.84094,-0.82746c0,-0.2691 -0.05554,-0.42932 -0.1607,-0.55536c-0.12238,-0.14264 -0.32239,-0.20074 -0.61298,-0.20904z"/>
  <path id="svg_12" fill="#f0f2ef" d="m22,3l-20,0c-1.10254,0 -2,0.89697 -2,2l0,14c0,1.10303 0.89746,2 2,2l20,0c1.10254,0 2,-0.89697 2,-2l0,-14c0,-1.10303 -0.89746,-2 -2,-2zm-15.99036,8.22968l-0.07013,-0.1861l0,0.01025c0,0.23889 -0.16577,0.4328 -0.36993,0.4328l-1.08936,0c-0.15033,0 -0.28521,-0.10601 -0.3424,-0.26819l-0.11151,-0.31652l-0.62049,0l-0.1131,0.31848c-0.05682,0.16119 -0.19207,0.26672 -0.34075,0.26672l-0.58204,0c-0.12445,0 -0.24054,-0.0733 -0.30902,-0.1944c-0.06805,-0.12213 -0.08014,-0.27551 -0.03088,-0.40887l0.95868,-2.62158c0.05804,-0.15875 0.19208,-0.26227 0.34033,-0.26227l0.79498,0c0.14826,0 0.28144,0.10303 0.34034,0.26178l0.2008,0.5481l0,-0.37665c0,-0.23883 0.16535,-0.43274 0.36994,-0.43274l0.87475,0c0.14368,0 0.27521,0.09863 0.33618,0.25152l0.35028,0.89002l0.31818,-0.87732c0.05762,-0.16022 0.19208,-0.26422 0.3399,-0.26422l0.8927,0c0.07514,0 0.14069,0.03271 0.19959,0.07763c0.05847,-0.04492 0.12402,-0.07763 0.19958,-0.07763l1.78876,0c0.06934,0 0.13068,0.02832 0.18543,0.06689c0.05548,-0.03857 0.11645,-0.06689 0.18579,-0.06689l1.23175,0c0.3186,0 0.58209,0.01318 0.83386,0.18316c0.02545,0.01807 0.04382,0.04102 0.06677,0.06055c0.06012,-0.14264 0.18372,-0.24371 0.32947,-0.24371l0.54657,0c0.18494,0 0.33191,0.16119 0.35907,0.3678c0.23969,-0.2428 0.56622,-0.3678 1.00543,-0.3678l0.51819,0c0.08228,0 0.15955,0.03174 0.22089,0.08594c0.06219,-0.05469 0.13946,-0.08594 0.22131,-0.08594l0.80212,0c0.14777,0 0.28101,0.10351 0.33985,0.26227l0.19665,0.53833l0,-0.36786c0,-0.23883 0.16578,-0.43274 0.37037,-0.43274l0.81549,0c0.12988,0 0.24969,0.0791 0.31652,0.20904l0.2547,0.49384l0,-0.27063c0,-0.23883 0.16614,-0.43274 0.37079,-0.43274l0.54779,0c0.20459,0 0.36994,0.19391 0.36994,0.43274l0,2.62158c0,0.23889 -0.1662,0.4328 -0.36994,0.4328l-0.75824,0c-0.13073,0 -0.25055,-0.07916 -0.31775,-0.20904l-0.32861,-0.63745l0,0.41369c0,0.23889 -0.1662,0.4328 -0.36999,0.4328l-1.09021,0c-0.14905,0 -0.28309,-0.10504 -0.34156,-0.26623l-0.11316,-0.31849l-0.61712,0l-0.10938,0.31409c-0.05554,0.16364 -0.19165,0.27112 -0.34155,0.27112l-0.62714,0c-0.23846,0 -0.66516,-0.05035 -0.96954,-0.34875c-0.03467,0.19732 -0.17664,0.34875 -0.35577,0.34875l-0.547,0c-0.06055,0 -0.11609,-0.02148 -0.16742,-0.05231c-0.05054,0.03083 -0.10522,0.05231 -0.1662,0.05231l-0.54028,0c-0.20337,0 -0.36872,-0.19196 -0.37036,-0.42938l-0.00208,-0.33069l0.00079,-0.05762c0,-0.03515 0.00086,-0.08795 -0.00164,-0.13238c-0.02466,-0.00196 -0.05762,-0.00342 -0.10395,-0.00342l-0.20422,0l0,0.52069c0,0.23889 -0.16577,0.4328 -0.36993,0.4328l-0.53614,0c-0.06927,0 -0.12982,-0.02838 -0.18579,-0.06696c-0.05469,0.03858 -0.11609,0.06696 -0.18542,0.06696l-1.78876,0c-0.07556,0 -0.14111,-0.0332 -0.19958,-0.0777c-0.05884,0.0445 -0.12439,0.0777 -0.19959,0.0777l-0.54907,0c-0.20459,0 -0.36994,-0.19348 -0.36994,-0.43231l0,-0.01074l-0.07098,0.1856c-0.05927,0.1568 -0.19122,0.25794 -0.3382,0.25794l-0.47058,0c-0.14618,0 -0.27893,-0.10114 -0.33783,-0.25842zm14.78223,4.76934c-0.00073,0 -0.00159,0 -0.00159,0l-1.04376,0c-0.15283,0 -0.28351,-0.10894 -0.34033,-0.2633c-0.20331,0.16852 -0.47223,0.2633 -0.80499,0.2633l-1.04303,0c-0.0589,0 -0.11151,-0.01904 -0.16077,-0.04693c-0.04883,0.02789 -0.10187,0.04693 -0.16034,0.04693l-1.78711,0c-0.05969,0 -0.11438,-0.01904 -0.16363,-0.04882c-0.04969,0.0288 -0.10358,0.04882 -0.16285,0.04882l-0.53741,0c-0.20502,0 -0.37036,-0.19391 -0.37036,-0.4328l0,-0.38098c0.00085,-0.03711 0.00085,-0.09381 -0.00165,-0.1402c-0.02466,-0.00195 -0.05933,-0.0039 -0.10858,-0.0039l-0.20209,0l0,0.52508c0,0.23938 -0.16577,0.4328 -0.36993,0.4328l-0.53821,0c-0.20502,0 -0.37036,-0.19391 -0.37036,-0.4328l0,-0.66626c-0.19,0.13239 -0.45221,0.2193 -0.81384,0.2193l-0.29767,0l0,0.44696c0,0.23938 -0.16577,0.4328 -0.37036,0.4328l-1.04096,0c-0.10565,0 -0.20666,-0.05279 -0.27685,-0.14508l-0.38788,-0.51092l-0.40882,0.51776c-0.07013,0.08838 -0.16827,0.13922 -0.27136,0.13922l-2.12158,0c-0.20459,0 -0.36993,-0.1944 -0.36993,-0.43329l0,-2.62158c0,-0.23981 0.16577,-0.43323 0.36993,-0.43323l2.15369,0c0.10565,0 0.20544,0.05176 0.2752,0.14362l0.38916,0.50653l0.4054,-0.5119c0.07019,-0.08844 0.16827,-0.13825 0.27142,-0.13825l1.71112,0c0.37494,0 0.63886,0.09717 0.8263,0.24079c0.06054,-0.14167 0.18249,-0.24079 0.32739,-0.24079l1.23675,0c0.28479,0 0.56037,0.0127 0.81879,0.17438c0.02802,0.01904 0.04596,0.04394 0.07184,0.06445c0.06097,-0.14013 0.18164,-0.23883 0.32611,-0.23883l1.78711,0c0.13861,0 0.25549,0.09326 0.31897,0.22565c0.17621,-0.13971 0.41003,-0.22565 0.70483,-0.22565l1.07306,0c0.16162,0 0.29438,0.12164 0.34577,0.28919c0.18371,-0.17444 0.43463,-0.28919 0.7691,-0.28919l1.07391,0c0.20423,0 0.36957,0.19391 0.36957,0.43323l0,0.55786c0,0.15289 -0.06683,0.28723 -0.16913,0.36438c0.00293,0.00391 0.00708,0.0083 0.01087,0.0127c0.18371,0.22076 0.26721,0.49334 0.26721,0.85968c0,0.78808 -0.45117,1.25927 -1.20813,1.25927z"/>
  <polygon id="svg_13" points="15.4495239,15.5667114 17.2366333,15.5667114 17.2366333,15.0230713 15.9823608,15.0201416    15.9823608,14.4989624 17.2057495,14.4989624 17.2057495,13.9641113 15.9823608,13.9641113 15.9823608,13.4868774    17.2366333,13.4868774 17.2366333,12.9451294 15.4495239,12.9451294  " fill="#f0f2ef"/>
 </g>
</svg>