<?xml version="1.0" encoding="utf-8"?>
<!-- Generator: Adobe Illustrator 16.0.0, SVG Export Plug-In . SVG Version: 6.00 Build 0)  -->
<!DOCTYPE svg PUBLIC "-//W3C//DTD SVG 1.1//EN" "http://www.w3.org/Graphics/SVG/1.1/DTD/svg11.dtd">
<svg version="1.1" id="Capa_1" xmlns="http://www.w3.org/2000/svg" xmlns:xlink="http://www.w3.org/1999/xlink" x="0px" y="0px"
	 width="30px" height="30px" viewBox="0 0 30 30" enable-background="new 0 0 30 30" xml:space="preserve">
<g id="Behance" display="none">
	<g display="inline">
		<g id="XMLID_97_">
			<path id="XMLID_102_" fill="#121113" d="M11.646,10c0.468,0,0.894,0.039,1.281,0.124c0.383,0.081,0.712,0.217,0.991,0.406
				c0.275,0.186,0.488,0.438,0.639,0.747c0.151,0.31,0.225,0.697,0.225,1.154c0,0.496-0.112,0.906-0.337,1.239
				c-0.225,0.329-0.558,0.6-1.003,0.81c0.604,0.174,1.053,0.48,1.348,0.915c0.298,0.437,0.445,0.959,0.445,1.576
				c0,0.498-0.097,0.924-0.287,1.284c-0.194,0.364-0.453,0.662-0.778,0.892c-0.325,0.229-0.697,0.397-1.115,0.511
				c-0.415,0.108-0.844,0.167-1.282,0.167H7.02V10H11.646z M11.368,13.964c0.383,0,0.701-0.089,0.952-0.275
				c0.248-0.182,0.368-0.48,0.368-0.894c0-0.229-0.039-0.418-0.12-0.565c-0.085-0.147-0.194-0.259-0.333-0.341
				c-0.14-0.085-0.294-0.139-0.477-0.174c-0.178-0.035-0.364-0.05-0.557-0.05H9.18v2.296h2.188V13.964z M11.487,18.146
				c0.213,0,0.415-0.021,0.608-0.063c0.194-0.043,0.364-0.107,0.511-0.209c0.143-0.098,0.263-0.225,0.352-0.393
				c0.089-0.166,0.128-0.379,0.128-0.635c0-0.507-0.143-0.863-0.426-1.084c-0.283-0.217-0.662-0.32-1.126-0.32h-2.35v2.701h2.303
				V18.146z"/>
			<path id="XMLID_99_" fill="#121113" d="M18.32,18.109c0.295,0.287,0.717,0.431,1.263,0.431c0.396,0,0.735-0.101,1.019-0.298
				c0.282-0.197,0.457-0.41,0.522-0.631h1.719c-0.274,0.854-0.696,1.467-1.266,1.834C21.012,19.814,20.322,20,19.518,20
				c-0.562,0-1.063-0.089-1.518-0.271c-0.453-0.182-0.829-0.434-1.146-0.762c-0.31-0.333-0.549-0.725-0.72-1.186
				c-0.171-0.456-0.256-0.965-0.256-1.514c0-0.531,0.089-1.029,0.265-1.486c0.178-0.461,0.422-0.859,0.742-1.192
				c0.321-0.337,0.705-0.6,1.153-0.793c0.444-0.194,0.938-0.291,1.483-0.291c0.6,0,1.125,0.116,1.578,0.352
				c0.449,0.232,0.817,0.546,1.107,0.941s0.496,0.844,0.623,1.347c0.128,0.504,0.175,1.03,0.136,1.584h-5.13
				C17.837,17.294,18.027,17.828,18.32,18.109z M20.563,14.378c-0.231-0.255-0.623-0.395-1.104-0.395
				c-0.313,0-0.568,0.054-0.777,0.159c-0.201,0.104-0.367,0.236-0.496,0.391c-0.127,0.159-0.213,0.325-0.263,0.499
				c-0.051,0.174-0.082,0.329-0.09,0.468h3.179C20.971,15.006,20.799,14.638,20.563,14.378z"/>
			<rect id="XMLID_98_" x="17.438" y="10.658" fill="#121113" width="3.979" height="0.968"/>
		</g>
	</g>
</g>
<g id="Linkedin" display="none">
	<g display="inline">
		<g id="XMLID_184_">
			<path id="XMLID_195_" fill="#121113" d="M10.154,13.32h2.077V20h-2.077V13.32z M11.197,10c0.664,0,1.205,0.541,1.205,1.205
				s-0.541,1.205-1.205,1.205c-0.668,0-1.205-0.541-1.205-1.205S10.529,10,11.197,10"/>
			<path id="XMLID_192_" fill="#121113" d="M13.537,13.32h1.988v0.915h0.027c0.278-0.525,0.954-1.077,1.966-1.077
				c2.101,0,2.489,1.382,2.489,3.182V20h-2.073v-3.247c0-0.776-0.012-1.772-1.076-1.772c-1.083,0-1.245,0.846-1.245,1.714V20H13.54
				L13.537,13.32L13.537,13.32z"/>
		</g>
	</g>
</g>
<g id="Linkedin_1_" display="none">
	<g display="inline">
		<g id="XMLID_1_">
			<path id="XMLID_3_" fill="#121113" d="M10.154,13.32h2.077V20h-2.077V13.32z M11.197,10c0.664,0,1.205,0.541,1.205,1.205
				s-0.541,1.205-1.205,1.205c-0.668,0-1.205-0.541-1.205-1.205S10.529,10,11.197,10"/>
			<path id="XMLID_2_" fill="#121113" d="M13.537,13.32h1.988v0.915h0.027c0.278-0.525,0.954-1.077,1.966-1.077
				c2.101,0,2.489,1.382,2.489,3.182V20h-2.073v-3.247c0-0.776-0.012-1.772-1.076-1.772c-1.083,0-1.245,0.846-1.245,1.714V20H13.54
				L13.537,13.32L13.537,13.32z"/>
		</g>
	</g>
</g>
<g id="Facebook_1_" display="none">
	<g display="inline">
		<path id="f_1_" fill="#121113" d="M15.774,20v-4.563h1.533l0.229-1.776h-1.762v-1.136c0-0.514,0.143-0.865,0.88-0.865h0.943
			v-1.591C17.436,10.046,16.875,10,16.227,10c-1.359,0-2.287,0.831-2.287,2.352v1.313h-1.538v1.776h1.538V20H15.774z"/>
	</g>
</g>
<g id="Behance_2_" display="none">
	<g display="inline">
		<g id="XMLID_11_">
			<path id="XMLID_14_" fill="#121113" d="M11.646,10c0.468,0,0.894,0.039,1.281,0.124c0.383,0.081,0.712,0.217,0.991,0.406
				c0.275,0.186,0.488,0.438,0.639,0.747c0.151,0.31,0.225,0.697,0.225,1.154c0,0.496-0.112,0.906-0.337,1.239
				c-0.225,0.329-0.558,0.6-1.003,0.81c0.604,0.174,1.053,0.48,1.348,0.915c0.298,0.437,0.445,0.959,0.445,1.576
				c0,0.498-0.097,0.924-0.287,1.284c-0.194,0.364-0.453,0.662-0.778,0.892c-0.325,0.229-0.697,0.397-1.115,0.511
				c-0.415,0.108-0.844,0.167-1.282,0.167H7.02V10H11.646z M11.368,13.964c0.383,0,0.701-0.089,0.952-0.275
				c0.248-0.182,0.368-0.48,0.368-0.894c0-0.229-0.039-0.418-0.12-0.565c-0.085-0.147-0.194-0.259-0.333-0.341
				c-0.14-0.085-0.294-0.139-0.477-0.174c-0.178-0.035-0.364-0.05-0.557-0.05H9.18v2.296h2.188V13.964z M11.487,18.146
				c0.213,0,0.415-0.021,0.608-0.063c0.194-0.043,0.364-0.107,0.511-0.209c0.143-0.098,0.263-0.225,0.352-0.393
				c0.089-0.166,0.128-0.379,0.128-0.635c0-0.507-0.143-0.863-0.426-1.084c-0.283-0.217-0.662-0.32-1.126-0.32h-2.35v2.701h2.303
				V18.146z"/>
			<path id="XMLID_13_" fill="#121113" d="M18.32,18.109c0.295,0.287,0.717,0.431,1.263,0.431c0.396,0,0.735-0.101,1.019-0.298
				c0.282-0.197,0.457-0.41,0.522-0.631h1.719c-0.274,0.854-0.696,1.467-1.266,1.834C21.012,19.814,20.322,20,19.518,20
				c-0.562,0-1.063-0.089-1.518-0.271c-0.453-0.182-0.829-0.434-1.146-0.762c-0.31-0.333-0.549-0.725-0.72-1.186
				c-0.171-0.456-0.256-0.965-0.256-1.514c0-0.531,0.089-1.029,0.265-1.486c0.178-0.461,0.422-0.859,0.742-1.192
				c0.321-0.337,0.705-0.6,1.153-0.793c0.444-0.194,0.938-0.291,1.483-0.291c0.6,0,1.125,0.116,1.578,0.352
				c0.449,0.232,0.817,0.546,1.107,0.941s0.496,0.844,0.623,1.347c0.128,0.504,0.175,1.03,0.136,1.584h-5.13
				C17.837,17.294,18.027,17.828,18.32,18.109z M20.563,14.378c-0.231-0.255-0.623-0.395-1.104-0.395
				c-0.313,0-0.568,0.054-0.777,0.159c-0.201,0.104-0.367,0.236-0.496,0.391c-0.127,0.159-0.213,0.325-0.263,0.499
				c-0.051,0.174-0.082,0.329-0.09,0.468h3.179C20.971,15.006,20.799,14.638,20.563,14.378z"/>
			<rect id="XMLID_12_" x="17.438" y="10.658" fill="#121113" width="3.979" height="0.968"/>
		</g>
	</g>
</g>
<g id="Facebook_2_" display="none">
	<g display="inline">
		<path id="f_2_" fill="#121113" d="M15.774,20v-4.563h1.533l0.229-1.776h-1.762v-1.136c0-0.514,0.143-0.865,0.88-0.865h0.943
			v-1.591C17.436,10.046,16.875,10,16.227,10c-1.359,0-2.287,0.831-2.287,2.352v1.313h-1.538v1.776h1.538V20H15.774z"/>
	</g>
</g>
<g>
	<path id="svg_3" fill="#262626" d="M19.449,16.828c-1.5,0-2.699,0.399-3.6,0.899c1.4,1.2,2,2.601,2.1,2.7l0.101,0.199v2.201h8v-2
		C25.949,20.828,24.35,16.828,19.449,16.828z"/>
	<circle id="svg_5" fill="#262626" cx="19.449" cy="11.328" r="3.5"/>
	<path id="svg_7" fill="#262626" d="M6.95,11.328c0-1.9,1.6-3.5,3.5-3.5s3.5,1.6,3.5,3.5s-1.6,3.5-3.5,3.5S6.95,13.228,6.95,11.328z
		 M10.45,16.828c-4.9,0-6.5,4-6.5,4v2h13v-2C16.949,20.828,15.35,16.828,10.45,16.828z"/>
</g>
</svg>
