<?xml version="1.0" encoding="utf-8"?>
<!-- Generator: Adobe Illustrator 16.0.0, SVG Export Plug-In . SVG Version: 6.00 Build 0)  -->
<!DOCTYPE svg PUBLIC "-//W3C//DTD SVG 1.1//EN" "http://www.w3.org/Graphics/SVG/1.1/DTD/svg11.dtd">
<svg version="1.1" id="Capa_1" xmlns="http://www.w3.org/2000/svg" xmlns:xlink="http://www.w3.org/1999/xlink" x="0px" y="0px"
	 width="200px" height="200px" viewBox="0 0 200 200" enable-background="new 0 0 200 200" xml:space="preserve">
<path fill-rule="evenodd" clip-rule="evenodd" fill="#FFFFFF" d="M61.035,109.455c-1.448,3.011-4.001,4.44-7.181,4.714
	c-2.86,0.245-4.998-1.163-6.481-3.543c-1.673-2.683-2.21-5.691-2.321-8.793c-0.195-5.481,0.926-10.644,3.839-15.344
	c1.394-2.248,3.188-4.106,5.602-5.278c2.959-1.436,4.361-1.216,6.731,1.001c2.78-3.786,5.263-4.673,8.261-3.27
	c-0.078,3.462-0.22,6.748-0.208,10.034c0.013,4.055,0.132,8.108,0.248,12.162c0.041,1.457,0.058,3.021,1.771,3.646
	c1.381,0.503,3.217-0.314,4.117-2.081c0.634-1.243,1.14-2.714,1.146-4.085c0.025-5.457-0.153-10.914-0.295-16.371
	c-0.022-0.868-0.245-1.731-0.376-2.597c-0.142,0-0.283,0.001-0.424,0.002c-0.088,0.155-0.226,0.301-0.257,0.466
	c-0.192,1.017-0.766,1.798-1.773,1.293c-0.383-0.192-0.57-1.55-0.295-2.098c0.415-0.824,1.201-1.668,2.035-2.03
	c1.593-0.693,3.303-1.223,5.016-1.503c1.732-0.283,3.126,0.558,4.029,2.304c0.394-0.439,0.716-0.802,1.042-1.16
	c2.414-2.66,5.396-4.006,9.006-3.817c3.275,0.17,4.99,2.416,4.27,5.619c-0.249,1.108-0.872,2.159-0.974,3.269
	c-0.081,0.876,0.105,2.106,0.676,2.611c0.479,0.424,1.843,0.317,2.538-0.062c2.077-1.133,3.491-2.676,3.371-5.422
	c-0.27-6.179-0.261-12.369-0.4-18.554c-0.017-0.724-0.253-1.443-0.389-2.165c-0.152,0.003-0.306,0.007-0.458,0.011
	c-0.144,0.396-0.183,0.903-0.456,1.161c-0.37,0.351-0.97,0.757-1.379,0.676c-0.331-0.065-0.813-0.89-0.723-1.247
	c0.193-0.76,0.564-1.609,1.134-2.114c1.901-1.687,4.225-2.43,6.749-2.354c2.113,0.063,3.453,1.292,3.71,3.687
	c0.292,2.73,0.285,5.494,0.382,8.245c0.038,1.078,0.007,2.159,0.007,3.244c0.36,0,0.48,0.038,0.546-0.005
	c5.299-3.502,10.574-1.347,13.458,3.675c0.666,1.158,0.992,2.508,1.628,3.688c0.255,0.472,0.901,0.993,1.403,1.028
	c2.718,0.193,5.211-1.653,6.044-4.269c1.086-3.413,2.651-6.562,5.364-8.997c2.341-2.101,5.048-3.365,8.261-2.806
	c3.631,0.632,5.985,4.164,5.5,8.055c-0.796,6.366-4.397,10.524-10.309,12.685c-1.429,0.522-1.537,1.114-1.13,2.373
	c1.262,3.901,4.737,5.782,8.914,4.633c3.567-0.981,6.135-3.202,7.613-6.606c0.261-0.6,0.41-1.304,0.399-1.956
	c-0.087-5.718-0.211-11.436-0.363-17.151c-0.014-0.541-0.291-1.075-0.474-1.707c-0.296,0.219-0.346,0.241-0.377,0.28
	c-0.479,0.595-0.923,1.228-1.469,1.752c-0.084,0.08-0.946-0.373-0.928-0.509c0.113-0.829,0.167-1.791,0.628-2.427
	c1.458-2.01,5.942-3.459,8.226-2.633c0.949,0.344,1.716,1.191,2.443,1.721c0.732-0.635,1.577-1.393,2.451-2.117
	c2.179-1.806,4.713-2.629,7.518-2.48c3.419,0.181,5.136,2.587,4.261,5.895c-0.252,0.952-0.82,1.859-0.882,2.811
	c-0.061,0.945,0.052,2.145,0.597,2.829c0.758,0.951,2.07,0.504,2.808-0.193c1.252-1.186,2.264-2.623,3.389-3.944
	c0.37-0.436,0.775-0.841,1.403-1.516c0.112,4.602-4.049,8.841-8.686,9.349c-5.13,0.563-8.258-2.898-7.252-7.974
	c0.127-0.639-0.004-1.328-0.015-1.994c-0.747,0.11-1.574,0.052-2.228,0.361c-1.781,0.847-2.836,2.337-2.803,4.334
	c0.109,6.704,0.274,13.409,0.49,20.111c0.032,1.002,0.449,1.992,0.704,3.052c-3.294,3.737-7.384,3.18-9.291-1.503
	c-0.35,0.43-0.648,0.804-0.954,1.173c-3.22,3.893-7.303,6.112-12.396,6.255c-7.137,0.2-12.204-4.446-12.674-11.574
	c-0.064-0.981-0.009-1.971-0.009-3.008c-1.8,0.77-3.529,1.509-5.041,2.155c-0.626,2.896-0.956,5.819-1.901,8.527
	c-2.432,6.963-8.133,10.894-15.13,10.792c-4.076-0.059-6.653-2.02-7.27-6.051c-0.452-2.963-0.398-6.003-0.552-9.009
	c-0.037-0.723-0.006-1.448-0.006-2.626c-0.606,0.644-0.928,0.985-1.25,1.326c-2.257,2.389-5.112,3.17-8.247,2.769
	c-3.764-0.482-5.786-4.016-4.88-8.136c0.122-0.555,0.03-1.157,0.038-1.738c-0.644,0.033-1.359-0.104-1.919,0.132
	c-1.985,0.836-3.204,2.351-3.176,4.565c0.084,6.394,0.207,12.787,0.4,19.179c0.038,1.269,0.456,2.525,0.726,3.931
	c-2.539,3.354-6.611,3.211-9.044-0.598c-1.644,2.61-3.797,4.524-6.82,5.29c-3.235,0.82-5.855,0.036-7.624-3.034
	c-0.415,0.444-0.746,0.799-1.077,1.154c0.192-0.566,0.385-1.132,0.578-1.697c0.032,0.076,0.065,0.152,0.098,0.228
	c-2.21,1.971-4.42,3.941-6.42,5.726C57.784,112.929,59.478,111.295,61.035,109.455z M120.427,85.048
	c-0.277-3.324-0.455-6.616-1.977-9.601c-0.534-1.048-1.432-2.104-2.437-2.675c-1.829-1.041-3.486,0.089-3.447,2.128
	c0.097,5.089,0.161,10.179,0.341,15.265c0.046,1.27,0.299,2.598,0.771,3.771c0.768,1.906,2.558,2.245,3.983,0.754
	c0.758-0.792,1.432-1.856,1.681-2.908C119.866,89.576,120.084,87.297,120.427,85.048z M60.776,94.577
	c-0.021-0.001-0.043-0.001-0.065-0.001c0-2.491,0.081-4.986-0.051-7.471c-0.038-0.716-0.565-1.841-1.09-1.987
	c-0.678-0.188-1.825,0.188-2.324,0.731c-0.886,0.964-1.633,2.164-2.089,3.395c-1.462,3.942-1.903,8.077-1.676,12.25
	c0.088,1.628,0.415,3.319,1.025,4.822c0.921,2.268,3.394,2.515,4.793,0.511c0.717-1.026,1.325-2.334,1.411-3.554
	C60.914,100.388,60.776,97.477,60.776,94.577z M142.452,80.558c4.27-1.84,7.034-4.282,7.902-8.502
	c0.334-1.622,0.087-3.101-0.845-4.435c-1.198-1.713-2.832-1.909-3.894-0.148c-1.204,1.995-2.148,4.24-2.714,6.499
	C142.405,75.957,142.59,78.113,142.452,80.558z M110.396,57.048c-0.072,0.01-0.144,0.02-0.215,0.03
	c0.048,0.863,0.112,1.725,0.14,2.589c0.331,10.182,0.621,20.364,1.02,30.543c0.06,1.523,0.503,3.064,0.994,4.521
	c0.234,0.697,0.998,1.216,1.521,1.815c-1.449-1.665-1.91-3.129-2.04-6.896c-0.356-10.335-0.746-20.669-1.139-31.002
	C110.657,58.112,110.492,57.582,110.396,57.048z M120.023,98.42c0.58-0.467,1.205-0.888,1.732-1.407
	c3.729-3.667,5.441-8.283,5.972-13.349c0.4-3.825-0.378-7.461-2.8-10.568c-2.035-2.611-4.699-3.952-8.079-3.626
	c5.097,0.373,8.307,3.229,9.504,7.992c0.638,2.54,0.716,5.373,0.357,7.979C126.019,90.457,123.868,94.884,120.023,98.42z
	 M169.776,61.029c-1.962,0.991-2.854,2.728-2.893,4.808c-0.14,7.6-0.725,15.231,1.265,22.866c-0.647,0.331-1.301,0.769-2.021,1.005
	c-0.716,0.236-1.498,0.271-2.532,0.441c0.596,0.096,0.94,0.263,1.197,0.175c1.3-0.445,2.656-0.828,3.8-1.543
	c0.256-0.16-0.264-1.558-0.42-2.387c-0.058-0.306-0.132-0.613-0.143-0.922c-0.206-6.166-0.398-12.333-0.606-18.499
	C167.345,64.641,167.885,62.573,169.776,61.029z M150.353,90.999c-4.237,0.087-6.867-2.114-8.127-5.944
	c-1.251-3.805-1.493-7.735-0.783-11.699c0.48-2.684,1.749-4.977,3.467-7.072c-1.133,1.157-2.308,2.335-2.938,3.754
	c-2.513,5.652-2.185,11.378,0.396,16.881C143.875,90.138,146.678,91.58,150.353,90.999z M86.101,78.561
	c-1.83,0.981-2.838,2.624-2.807,4.617c0.108,6.852,0.313,13.702,0.625,20.547c0.075,1.646-0.223,2.823-1.855,3.573
	c1.77-0.308,2.48-1.378,2.413-3.213c-0.243-6.644-0.439-13.289-0.663-19.933C83.739,81.941,84.417,80.063,86.101,78.561z
	 M57.036,84.94c-1.699,0.992-2.6,2.136-3.406,4.194c-1.35,3.444-1.638,7.078-1.51,10.702c0.078,2.238,0.576,4.497,1.172,6.669
	c0.398,1.454,1.55,2.41,3.67,2.372c-2.507-0.508-3.285-2.098-3.706-3.936c-0.836-3.648-0.493-7.319-0.1-10.981
	C53.51,90.682,54.34,87.578,57.036,84.94z M68.974,105.232c0.034-0.057,0.068-0.113,0.103-0.171
	c-0.188-1.77-0.481-3.534-0.542-5.308c-0.201-5.836-0.317-11.675-0.466-17.512c-0.36,0.231-0.433,0.468-0.429,0.702
	c0.099,6.271,0.157,12.544,0.354,18.812C68.031,102.924,68.633,104.073,68.974,105.232z M144.812,81.455
	c4.254-1.264,7.726-5.184,8.75-9.636c0.604-2.627-0.06-5.487-1.608-6.932C154.522,71.592,152.408,76.65,144.812,81.455z
	 M158.941,87.561c-5.744,4.928-5.744,4.928-14.588,6.272C150.232,94.851,156.145,92.343,158.941,87.561z M179.944,67.854
	c0.15-0.017,0.302-0.032,0.453-0.048c-0.071-0.756-0.303-1.538-0.182-2.261c0.255-1.521,0.655-3.022,1.067-4.513
	c0.494-1.79-0.166-3.262-1.929-3.795c-0.921-0.278-1.922-0.292-2.887-0.425c0.663,0.423,1.375,0.533,2.063,0.727
	c1.954,0.551,2.528,1.678,1.943,3.63c-0.296,0.987-0.666,1.988-0.733,3.002C179.659,65.389,179.863,66.626,179.944,67.854z
	 M97.969,85.806c-1.522-0.508-1.705-1.786-1.506-3.046c0.266-1.676,0.741-3.323,1.199-4.962c0.524-1.878-0.357-3.167-2.372-3.354
	c2.185,1.502,2.137,1.57,1.373,4.175c-0.445,1.521-0.755,3.121-0.833,4.701C95.769,84.587,96.257,85.785,97.969,85.806z
	 M178.183,69.95c4.655,1.329,8.943-1.337,10.137-6.292C186.154,67.941,183.126,70.186,178.183,69.95z M75.613,105.893
	c-2.798,2.923-6.105,4.333-10.574,3.369C68.858,111.267,73.465,109.712,75.613,105.893z M95.685,87.354
	c2.88,0.935,6.393-0.719,8.159-4.007C101.361,85.715,98.912,87.351,95.685,87.354z M129.294,81.505
	c2.242-0.142,3.681-0.828,4.734-2.615C132.453,79.76,131.062,80.528,129.294,81.505z M77.488,76.977
	c1.567,0.075,3.101,0.148,4.583,0.219C80.516,75.95,79.288,75.878,77.488,76.977z M62.6,82.378c1.199-1.04,2.12-1.839,3.286-2.85
	C64.103,79.779,63.196,80.599,62.6,82.378z"/>
<path fill-rule="evenodd" clip-rule="evenodd" fill="#FFFFFF" d="M3.185,86.122c1.865,0.423,2.501,1.169,2.404,2.817
	c-0.093,1.564-1.311,2.955-2.758,3.149c-1.337,0.18-2.294-0.584-2.607-2.084c-0.517-2.48-0.095-4.884,0.8-7.18
	c3.032-7.778,8.933-12.083,16.99-13.44c2.785-0.469,5.7-0.545,8.521-0.334c3.728,0.278,7.134,1.662,8.579,5.478
	c1.521,4.02,0.813,7.878-1.821,11.32c-0.434,0.566-0.962,1.06-1.288,1.414c1.841,1.157,3.838,2.083,5.427,3.475
	c4.069,3.563,4.537,8.37,3.868,13.329c-1.591,11.801-10.761,16.921-21.059,16.131c-4.097-0.315-6.723-3.136-6.908-7.484
	c-0.249-5.868-0.31-11.743-0.433-17.615c-0.099-4.729-0.15-9.461-0.273-14.189c-0.022-0.854-0.29-1.702-0.462-2.656
	c-0.413,0.224-0.522,0.248-0.575,0.316c-0.441,0.565-0.828,1.187-1.343,1.671c-0.111,0.104-0.991-0.291-0.985-0.435
	c0.031-0.779,0.012-1.694,0.41-2.301c1.357-2.076,5.883-3.581,8.286-2.908c2.036,0.57,2.725,2.197,2.868,4.029
	c0.218,2.796,0.235,5.607,0.34,8.411c0.019,0.503,0.051,1.004,0.097,1.872c1.826-0.778,3.458-1.396,5.01-2.175
	c0.617-0.31,1.233-0.884,1.544-1.493c1.642-3.218,1.601-6.558,0.053-9.747c-1.397-2.883-4.137-3.725-7.095-3.563
	c-6.865,0.377-12.686,2.857-16.242,9.091c-0.834,1.462-0.978,3.319-1.439,4.994c-0.082-0.828-0.408-1.724-0.204-2.476
	c1.029-3.788,3.409-6.637,6.691-8.681c4.502-2.805,9.375-4.105,14.954-3.049c-0.366-0.228-0.486-0.339-0.627-0.383
	c-0.345-0.107-0.694-0.217-1.05-0.269c-5.617-0.82-10.609,0.778-15.073,4.096c-2.787,2.071-4.69,4.844-5.557,8.245
	c-0.288,1.131-0.481,2.493,0.69,3.116c1.612,0.856,2.005,1.881,1.13,3.502C5.443,88.278,5.328,87.813,3.185,86.122z M21.284,100.553
	c0.073,0,0.145,0,0.218,0c0,1.404-0.066,2.811,0.015,4.21c0.126,2.173,0.181,4.373,0.582,6.501c0.406,2.153,1.698,2.897,3.855,2.737
	c3.125-0.233,5.049-2.008,6.068-4.832c1.191-3.305,1.368-6.721,0.646-10.141c-1.099-5.188-4.853-7.793-10.14-7.271
	c-1.051,0.104-1.277,0.525-1.259,1.469C21.316,95.668,21.284,98.11,21.284,100.553z M20.841,113.228
	c0.112-0.036,0.224-0.072,0.335-0.108c-0.211-1.521-0.578-3.037-0.608-4.561c-0.185-9.302-0.27-18.604-0.456-27.905
	c-0.025-1.231-0.437-2.454-0.668-3.682c-0.135,1.173,0.128,2.281,0.147,3.395c0.162,9.405,0.244,18.812,0.445,28.217
	C20.069,110.136,20.561,111.68,20.841,113.228z M31.531,117.07c0.525-0.081,0.688-0.061,0.794-0.13
	c0.522-0.34,1.053-0.672,1.537-1.061c4.569-3.673,6.469-8.658,6.848-14.311c0.292-4.368-1.23-8.051-4.645-10.876
	c-0.222-0.183-0.516-0.279-0.775-0.416c4.955,4.324,5.495,9.688,4.041,15.592C38.198,110.468,35.772,114.189,31.531,117.07z
	 M31.369,86.755c4.369-4.042,5.141-10.947,1.156-13.932C36.074,77.834,34.187,82.188,31.369,86.755z"/>
<path fill-rule="evenodd" clip-rule="evenodd" fill="#FFFFFF" d="M199.265,69.661c4.853,30.71-14.721,62.708-46.299,69.707
	c-16.194,3.59-31.243,0.492-45.002-8.792c-0.254-0.171-0.489-0.37-0.802-0.608c0.256-0.37,0.481-0.705,0.715-1.034
	c0.209-0.295,0.428-0.583,0.703-0.958c0.235,0.134,0.453,0.238,0.648,0.373c25.911,17.882,60.217,10.805,77.899-15.64
	c7.269-10.869,10.616-22.898,10.381-35.959c-0.015-0.808,0.447-1.617,0.648-2.436C198.584,72.584,198.983,70.847,199.265,69.661z"/>
<path fill-rule="evenodd" clip-rule="evenodd" fill="#FFFFFF" d="M177.28,34.813c-2.039-0.022-3.927-0.039-5.724-1.365
	c-27.863-20.571-66.448-11.173-82.425,20.023c-1.106,2.162-2.063,4.401-3.089,6.607c-1.866-1.847-1.922-1.906-0.875-4.164
	c8.771-18.918,22.956-31.307,43.729-35.032c18.022-3.233,34.032,1.728,47.977,13.504C177.022,34.513,177.146,34.67,177.28,34.813z"
	/>
<path fill-rule="evenodd" clip-rule="evenodd" fill="#FFFFFF" d="M95.834,180.085c-1.291-4.031-2.566-8.066-3.876-12.092
	c-2.568-7.896-5.099-15.788-6.364-24.042c-0.314-2.054-1.129-4.016-1.288-6.171c-0.081-1.105-1.064-2.382-1.997-3.143
	c-3.202-2.613-3.555-5.854-0.739-8.847c1.774-1.885,1.744-5.236-0.114-7.182c-0.42-0.441-1.008-0.722-1.519-1.076
	c0.156-0.204,0.313-0.408,0.468-0.611c0.53,0.287,1.283,0.441,1.547,0.887c0.77,1.294,1.274,2.744,2.017,4.058
	c0.62,1.095,1.246,2.307,2.188,3.077c3.234,2.646,3.716,5.748,1.063,9.032c-1.383,1.711-1.824,3.498-1.335,5.655
	c0.83,3.659,1.391,4.863,3.949,7.533c2.287-2.271,3.313-5.098,3.725-8.246c0.226-1.732-0.311-3.092-1.243-4.504
	c-0.919-1.394-1.518-2.996-2.283-4.493c-0.238-0.468-0.563-0.892-0.972-1.528c1.344-1.469,2.867-2.904,4.938-3.475
	c1.615-0.445,3.117,0.085,4.216,1.38c1.262,1.488,1.752,3.272,1.004,5.086c-0.455,1.103-1.437,1.979-2.129,2.993
	c-0.796,1.169-1.956,2.29-2.224,3.583c-1.101,5.334-1.95,10.722-2.813,16.102c-0.116,0.726,0.195,1.53,0.361,2.287
	c1.662,7.562,3.221,15.14,3.718,22.891c0.016,0.25,0.036,0.5,0.054,0.75C96.069,180.021,95.951,180.053,95.834,180.085z
	 M91.073,129.962c0.013,2.313,1.491,3.966,3.507,3.919c2.14-0.05,3.855-1.777,3.861-3.889c0.007-2.208-1.78-4.388-3.604-4.399
	C92.841,125.58,91.061,127.646,91.073,129.962z M87.991,129.909c-0.026-2.359-1.802-4.361-3.809-4.297
	c-1.881,0.061-3.519,2.156-3.478,4.451c0.039,2.156,1.724,3.813,3.881,3.815C86.642,133.883,88.019,132.277,87.991,129.909z"/>
<path fill-rule="evenodd" clip-rule="evenodd" fill="#FFFFFF" d="M109.834,126.044c1.304,0.823,2.586,1.684,3.913,2.465
	c24.178,14.227,54.524,7.336,70.88-16.14c7.127-10.229,10.643-21.624,10.647-34.101c0-0.665,0.192-1.33,0.295-1.995
	c0.175,0.016,0.349,0.032,0.522,0.048c0.039,0.221,0.106,0.44,0.112,0.662c0.646,25.084-13.89,46.865-34.489,55.48
	c-17.829,7.456-35.014,5.648-51.264-4.821c-0.426-0.274-0.689-0.802-1.029-1.21C109.56,126.303,109.696,126.174,109.834,126.044z"/>
<path fill-rule="evenodd" clip-rule="evenodd" fill="#FFFFFF" d="M171.109,35.299c-0.624-0.256-1.317-0.411-1.863-0.783
	c-9.732-6.643-20.456-10.25-32.259-9.619c-20.939,1.119-36.034,11.571-45.936,29.81c-1.43,2.632-2.467,5.478-3.995,8.306
	c0-0.605-0.181-1.281,0.026-1.806c8.004-20.297,22.224-33.312,44.133-36.775c14.248-2.252,27.298,1.313,39.077,9.592
	c0.338,0.237,0.664,0.492,0.996,0.739C171.229,34.942,171.169,35.121,171.109,35.299z"/>
<path fill-rule="evenodd" clip-rule="evenodd" fill="#FFFFFF" d="M131.865,107.382c-0.678-0.297-1.163-0.51-1.648-0.722
	c0.052-0.145,0.104-0.289,0.154-0.434c0.353-0.038,0.704-0.104,1.056-0.107c1.343-0.013,2.686-0.006,4.029-0.006
	c0.068,0.164,0.137,0.329,0.205,0.493c-0.454,0.239-0.909,0.479-1.513,0.796c0,1.305,0,2.785,0,4.493c1.06,0,2.08,0,3.1,0
	c1.036,0,2.071,0,3.233,0c0-1.58,0-3.055,0-4.544c-0.484-0.225-0.997-0.462-1.51-0.699c0.061-0.151,0.122-0.303,0.183-0.454
	c1.692,0,3.385,0,5.077,0c0.068,0.149,0.137,0.299,0.205,0.447c-0.509,0.233-1.017,0.468-1.662,0.764c0,3.376,0,6.889,0,10.485
	c0.162,0.058,0.355,0.103,0.525,0.192c0.351,0.187,0.689,0.396,1.033,0.596c-0.386,0.154-0.763,0.411-1.158,0.44
	c-0.879,0.068-1.771,0.076-2.648,0.001c-0.489-0.042-0.961-0.298-1.44-0.458c0.417-0.272,0.833-0.546,1.429-0.936
	c0-1.337,0-2.924,0-4.642c-2.09,0-4.179,0-6.367,0c0,1.614,0,3.202,0,4.877c0.294,0.05,0.618,0.037,0.87,0.167
	c0.222,0.113,0.362,0.385,0.538,0.587c-0.192,0.136-0.383,0.387-0.579,0.392c-1.351,0.035-2.703,0.041-4.054-0.005
	c-0.202-0.007-0.394-0.338-0.59-0.519c0.168-0.156,0.312-0.383,0.51-0.45c0.286-0.099,0.61-0.081,1.022-0.125
	C131.865,114.434,131.865,110.875,131.865,107.382z"/>
<path fill-rule="evenodd" clip-rule="evenodd" fill="#FFFFFF" d="M152.666,119.328c-4.077-0.019-6.646-2.679-6.601-6.834
	c0.045-4.038,2.657-6.645,6.66-6.644c4.072,0.001,6.691,2.66,6.678,6.781C159.391,116.766,156.793,119.347,152.666,119.328z
	 M157.296,112.423c-0.318-1.064-0.535-2.309-1.057-3.409c-0.739-1.556-2.173-2.202-3.859-2.139c-1.594,0.06-2.791,0.863-3.381,2.353
	c-0.877,2.215-0.917,4.483,0.071,6.67c0.756,1.673,2.145,2.492,4.005,2.415c1.776-0.074,2.905-1.073,3.474-2.669
	C156.893,114.679,157.023,113.638,157.296,112.423z"/>
<path fill-rule="evenodd" clip-rule="evenodd" fill="#FFFFFF" d="M164.97,114.315c0,1.113,0,2.336,0,3.54
	c0.117,0.078,0.193,0.144,0.281,0.184c0.491,0.225,0.985,0.442,1.479,0.663c-0.499,0.147-0.991,0.38-1.499,0.424
	c-0.823,0.071-1.665,0.082-2.485-0.005c-0.533-0.056-1.044-0.329-1.564-0.504c0.445-0.249,0.891-0.497,1.504-0.838
	c0-3.334,0-6.885,0-10.429c-0.547-0.228-1.08-0.45-1.613-0.673c0.051-0.173,0.101-0.347,0.151-0.52c2.567,0,5.146-0.157,7.697,0.051
	c1.916,0.156,3.123,1.595,3.265,3.227c0.176,2.021-0.719,3.575-2.72,4.168C168.056,114.022,166.541,114.081,164.97,114.315z
	 M164.947,112.967c1.862,0.179,3.567,0.299,4.574-1.437c0.671-1.158,0.67-2.457-0.261-3.487c-1.179-1.305-2.729-1.155-4.313-0.924
	C164.947,109.128,164.947,110.978,164.947,112.967z"/>
<path fill-rule="evenodd" clip-rule="evenodd" fill="#FFFFFF" d="M120.269,115.036c0.201,0.407,0.532,0.802,0.579,1.227
	c0.169,1.552,0.669,2.009,2.455,2.058c1.825,0.05,3.217-0.725,3.219-1.986c0.001-0.628-0.372-1.406-0.834-1.847
	c-0.578-0.552-1.42-0.827-2.148-1.221c-0.774-0.419-1.592-0.774-2.315-1.269c-1.228-0.839-1.759-2.046-1.438-3.522
	c0.3-1.374,1.274-2.22,2.597-2.358c1.476-0.155,2.985-0.054,4.474,0.044c0.359,0.024,0.958,0.441,0.987,0.726
	c0.09,0.855-0.037,1.734-0.12,2.602c-0.005,0.053-0.431,0.164-0.542,0.084c-0.171-0.124-0.262-0.382-0.349-0.598
	c-0.249-0.622-0.4-1.739-0.729-1.792c-1.132-0.181-2.413-0.245-3.468,0.125c-1.26,0.442-1.278,2.192-0.066,3.065
	c0.998,0.72,2.183,1.179,3.272,1.776c1.286,0.706,2.587,1.411,2.737,3.122c0.138,1.563-0.393,2.835-1.891,3.393
	c-1.045,0.389-2.208,0.613-3.324,0.635c-3.503,0.069-3.877-0.396-3.568-3.935C119.953,115.255,120.111,115.146,120.269,115.036z"/>
<path fill-rule="evenodd" clip-rule="evenodd" fill="#FFFFFF" d="M161.42,36.605c1.68,0.871,3.61,1.175,5.714,0.278
	c-0.858,2.09-1.222,4.058-0.282,5.813c-2.051-0.136-3.989-0.265-5.795-0.386C161.16,40.68,161.288,38.672,161.42,36.605z"/>
<path fill-rule="evenodd" clip-rule="evenodd" fill="#FFFFFF" d="M156.752,49.427c-1.732-0.099-3.682-0.211-5.359-0.307
	c0.105-1.693,0.228-3.63,0.337-5.379c1.647,0.11,3.626,0.242,5.361,0.358C156.985,45.754,156.862,47.685,156.752,49.427z"/>
<path fill-rule="evenodd" clip-rule="evenodd" fill="#FFFFFF" d="M176.4,49.383c-1.671-0.107-3.613-0.232-5.383-0.346
	c0.109-1.624,0.238-3.549,0.359-5.345c1.623,0.102,3.597,0.227,5.336,0.337C176.615,45.702,176.502,47.632,176.4,49.383z"/>
<path fill-rule="evenodd" clip-rule="evenodd" d="M3.185,86.122c2.144,1.691,2.258,2.156,0.86,3.996
	c0.875-1.621,0.482-2.646-1.13-3.502c-1.171-0.623-0.978-1.985-0.69-3.116c0.867-3.401,2.771-6.174,5.557-8.245
	c4.464-3.317,9.457-4.916,15.073-4.096c0.356,0.052,0.706,0.161,1.05,0.269c0.141,0.044,0.261,0.155,0.627,0.383
	c-5.579-1.057-10.452,0.244-14.954,3.049c-3.282,2.044-5.663,4.893-6.691,8.681c-0.204,0.752,0.122,1.647,0.204,2.476L3.185,86.122z
	"/>
<path fill-rule="evenodd" clip-rule="evenodd" d="M61.035,109.455c-1.558,1.84-3.251,3.474-5.416,3.831
	c2-1.784,4.21-3.755,6.42-5.726c-0.032-0.075-0.065-0.151-0.098-0.228c-0.193,0.565-0.386,1.131-0.578,1.697
	C61.254,109.171,61.145,109.313,61.035,109.455z"/>
<path fill-rule="evenodd" clip-rule="evenodd" d="M110.396,57.048c0.097,0.533,0.262,1.064,0.281,1.601
	c0.393,10.333,0.782,20.667,1.139,31.002c0.13,3.768,0.591,5.231,2.04,6.896c-0.523-0.6-1.287-1.118-1.521-1.815
	c-0.491-1.457-0.935-2.998-0.994-4.521c-0.398-10.179-0.688-20.361-1.02-30.543c-0.027-0.864-0.092-1.727-0.14-2.589
	C110.252,57.068,110.323,57.059,110.396,57.048z"/>
<path fill-rule="evenodd" clip-rule="evenodd" d="M120.023,98.42c3.845-3.536,5.995-7.963,6.687-12.979
	c0.358-2.605,0.28-5.438-0.357-7.979c-1.197-4.763-4.407-7.619-9.504-7.992c3.38-0.326,6.044,1.015,8.079,3.626
	c2.422,3.107,3.2,6.743,2.8,10.568c-0.53,5.065-2.243,9.682-5.972,13.349C121.229,97.532,120.604,97.953,120.023,98.42z"/>
<path fill-rule="evenodd" clip-rule="evenodd" d="M169.776,61.029c-1.892,1.544-2.432,3.611-2.353,5.944
	c0.208,6.166,0.4,12.333,0.606,18.499c0.011,0.309,0.085,0.616,0.143,0.922c0.156,0.829,0.676,2.227,0.42,2.387
	c-1.144,0.715-2.5,1.098-3.8,1.543c-0.257,0.088-0.602-0.079-1.197-0.175c1.034-0.17,1.816-0.205,2.532-0.441
	c0.72-0.236,1.373-0.674,2.021-1.005c-1.989-7.635-1.404-15.267-1.265-22.866C166.923,63.757,167.814,62.021,169.776,61.029z"/>
<path fill-rule="evenodd" clip-rule="evenodd" d="M150.353,90.999c-3.675,0.581-6.478-0.861-7.986-4.081
	c-2.58-5.503-2.908-11.229-0.396-16.881c0.631-1.419,1.806-2.597,2.938-3.754c-1.718,2.096-2.986,4.389-3.467,7.072
	c-0.71,3.964-0.468,7.895,0.783,11.699C143.485,88.885,146.115,91.086,150.353,90.999z"/>
<path fill-rule="evenodd" clip-rule="evenodd" d="M86.101,78.561c-1.684,1.503-2.361,3.381-2.287,5.592
	c0.224,6.644,0.42,13.289,0.663,19.933c0.067,1.835-0.644,2.905-2.413,3.213c1.633-0.75,1.931-1.927,1.855-3.573
	c-0.313-6.845-0.517-13.695-0.625-20.547C83.263,81.185,84.271,79.542,86.101,78.561z"/>
<path fill-rule="evenodd" clip-rule="evenodd" fill="#FFFFFF" d="M57.036,84.94c-2.696,2.638-3.526,5.741-3.88,9.021
	c-0.394,3.662-0.736,7.333,0.1,10.981c0.421,1.838,1.199,3.428,3.706,3.936c-2.12,0.038-3.271-0.918-3.67-2.372
	c-0.596-2.172-1.094-4.431-1.172-6.669c-0.128-3.624,0.16-7.258,1.51-10.702C54.437,87.076,55.337,85.933,57.036,84.94z"/>
<path fill-rule="evenodd" clip-rule="evenodd" d="M68.974,105.232c-0.341-1.159-0.942-2.309-0.979-3.477
	c-0.197-6.268-0.256-12.54-0.354-18.812c-0.004-0.234,0.068-0.471,0.429-0.702c0.148,5.837,0.265,11.676,0.466,17.512
	c0.061,1.773,0.354,3.538,0.542,5.308C69.042,105.119,69.008,105.176,68.974,105.232z"/>
<path fill-rule="evenodd" clip-rule="evenodd" d="M144.812,81.455c7.597-4.805,9.711-9.863,7.142-16.567
	c1.549,1.444,2.213,4.305,1.608,6.932C152.537,76.271,149.065,80.191,144.812,81.455z"/>
<path fill-rule="evenodd" clip-rule="evenodd" d="M158.941,87.561c-2.797,4.782-8.709,7.29-14.588,6.272
	C153.197,92.488,153.197,92.488,158.941,87.561z"/>
<path fill-rule="evenodd" clip-rule="evenodd" d="M179.944,67.854c-0.081-1.229-0.285-2.466-0.204-3.683
	c0.067-1.014,0.438-2.015,0.733-3.002c0.585-1.952,0.011-3.079-1.943-3.63c-0.688-0.194-1.399-0.303-2.063-0.727
	c0.965,0.133,1.966,0.147,2.887,0.425c1.763,0.533,2.423,2.005,1.929,3.795c-0.412,1.49-0.813,2.991-1.067,4.513
	c-0.121,0.723,0.11,1.505,0.182,2.261C180.246,67.822,180.095,67.838,179.944,67.854z"/>
<path fill-rule="evenodd" clip-rule="evenodd" d="M97.969,85.806c-1.712-0.021-2.2-1.219-2.139-2.485
	c0.078-1.58,0.388-3.18,0.833-4.701c0.764-2.604,0.812-2.673-1.373-4.175c2.015,0.187,2.896,1.476,2.372,3.354
	c-0.458,1.639-0.934,3.286-1.199,4.962C96.264,84.02,96.446,85.298,97.969,85.806z"/>
<path fill-rule="evenodd" clip-rule="evenodd" d="M178.183,69.95c4.943,0.235,7.972-2.009,10.137-6.292
	C187.126,68.613,182.838,71.279,178.183,69.95z"/>
<path fill-rule="evenodd" clip-rule="evenodd" d="M75.613,105.893c-2.148,3.819-6.755,5.374-10.574,3.369
	C69.508,110.226,72.815,108.815,75.613,105.893z"/>
<path fill-rule="evenodd" clip-rule="evenodd" d="M95.685,87.354c3.228-0.004,5.677-1.64,8.159-4.007
	C102.077,86.636,98.564,88.289,95.685,87.354z"/>
<path fill-rule="evenodd" clip-rule="evenodd" d="M129.294,81.505c1.768-0.977,3.159-1.745,4.734-2.615
	C132.975,80.677,131.536,81.363,129.294,81.505z"/>
<path fill-rule="evenodd" clip-rule="evenodd" d="M77.488,76.977c1.8-1.099,3.027-1.026,4.583,0.219
	C80.589,77.125,79.056,77.052,77.488,76.977z"/>
<path fill-rule="evenodd" clip-rule="evenodd" d="M62.6,82.378c0.597-1.779,1.503-2.599,3.286-2.85
	C64.72,80.539,63.799,81.338,62.6,82.378z"/>
<path fill-rule="evenodd" clip-rule="evenodd" d="M20.841,113.228c-0.28-1.548-0.771-3.092-0.805-4.645
	c-0.201-9.405-0.283-18.812-0.445-28.217c-0.019-1.113-0.282-2.222-0.147-3.395c0.232,1.228,0.644,2.45,0.668,3.682
	c0.187,9.301,0.271,18.604,0.456,27.905c0.03,1.523,0.396,3.04,0.608,4.561C21.064,113.155,20.953,113.191,20.841,113.228z"/>
<path fill-rule="evenodd" clip-rule="evenodd" d="M31.531,117.07c4.241-2.881,6.667-6.603,7.8-11.201
	c1.454-5.904,0.914-11.268-4.041-15.592c0.26,0.137,0.554,0.233,0.775,0.416c3.414,2.825,4.937,6.508,4.645,10.876
	c-0.379,5.652-2.278,10.638-6.848,14.311c-0.484,0.389-1.015,0.721-1.537,1.061C32.22,117.01,32.057,116.989,31.531,117.07z"/>
<path fill-rule="evenodd" clip-rule="evenodd" d="M31.369,86.755c2.817-4.566,4.705-8.921,1.156-13.932
	C36.51,75.808,35.738,82.713,31.369,86.755z"/>
</svg>
