<?xml version="1.0" encoding="utf-8"?>
<!-- Generator: Adobe Illustrator 16.0.0, SVG Export Plug-In . SVG Version: 6.00 Build 0)  -->
<!DOCTYPE svg PUBLIC "-//W3C//DTD SVG 1.1//EN" "http://www.w3.org/Graphics/SVG/1.1/DTD/svg11.dtd">
<svg version="1.1" id="Capa_1" xmlns="http://www.w3.org/2000/svg" xmlns:xlink="http://www.w3.org/1999/xlink" x="0px" y="0px"
	 width="30px" height="30px" viewBox="0 0 30 30" enable-background="new 0 0 30 30" xml:space="preserve">
<g>
	<g>
		<path fill="#262626" d="M29.855,15.541c-0.841,0.682-2.155,1.649-3.563,2.311c-2.385,1.123-4.231,1.59-6.92,1.59
			c-1.714,0-3.386-0.813-4.373-2.217c-0.987,1.404-2.659,2.217-4.373,2.217c-2.688,0-4.535-0.467-6.92-1.59
			c-1.408-0.662-2.722-1.629-3.563-2.311c-0.293-0.236-0.104-0.711,0.272-0.682c1.557,0.121,4.275,0.199,6.079-0.498
			c2.654-1.029,3.393-2.369,4.233-2.869c0.117-0.068,0.239-0.129,0.364-0.184c1.027-0.439,2.245-0.418,3.214,0.127
			c0.239,0.133,0.477,0.303,0.694,0.518c0.217-0.215,0.456-0.385,0.694-0.518c0.969-0.545,2.187-0.566,3.214-0.127
			c0.124,0.055,0.247,0.115,0.363,0.184c0.84,0.5,1.579,1.84,4.232,2.869c1.804,0.697,4.521,0.619,6.079,0.498
			C29.959,14.83,30.148,15.304,29.855,15.541z"/>
	</g>
</g>
</svg>
