<?xml version="1.0" encoding="utf-8"?>
<!-- Generator: Adobe Illustrator 16.0.0, SVG Export Plug-In . SVG Version: 6.00 Build 0)  -->
<!DOCTYPE svg PUBLIC "-//W3C//DTD SVG 1.1//EN" "http://www.w3.org/Graphics/SVG/1.1/DTD/svg11.dtd">
<svg version="1.1" id="Capa_1" xmlns="http://www.w3.org/2000/svg" xmlns:xlink="http://www.w3.org/1999/xlink" x="0px" y="0px"
	 width="30px" height="30px" viewBox="0 0 30 30" enable-background="new 0 0 30 30" xml:space="preserve">
<g>
	<g>
		<path fill="#262626" d="M14.463,0h1.072c1.863,0.002,3.442,1.371,3.712,3.214h-6.094c0.38-0.66,1.083-1.069,1.845-1.071V1.071
			c-1.36,0.002-2.573,0.86-3.026,2.143h-1.222C11.021,1.371,12.601,0.002,14.463,0z M19.285,20.671l-2.9,2.899h-3.306l6.207-6.206
			V20.671z M19.285,10.492l-8.572,8.57v-3.842l8.572-8.571V10.492z M10.713,13.707V10.4l3.973-3.972h3.306L10.713,13.707z
			 M10.713,8.886V6.429h2.457L10.713,8.886z M10.713,20.579l8.572-8.571v3.842l-7.723,7.723h-0.85L10.713,20.579L10.713,20.579z
			 M15.536,30h-1.072c-1.863-0.002-3.442-1.37-3.712-3.214h6.093c-0.38,0.659-1.083,1.067-1.845,1.071v1.07
			c1.36-0.002,2.573-0.859,3.026-2.143h1.223C18.979,28.63,17.398,29.998,15.536,30z M20.356,25.714H9.643v-1.071h10.715
			L20.356,25.714L20.356,25.714z M17.899,23.57l1.386-1.385v1.385H17.899z M20.356,5.357H9.643V4.286h10.715L20.356,5.357
			L20.356,5.357z"/>
	</g>
</g>
</svg>
