<?xml version="1.0" encoding="utf-8"?>
<!-- Generator: Adobe Illustrator 16.0.0, SVG Export Plug-In . SVG Version: 6.00 Build 0)  -->
<!DOCTYPE svg PUBLIC "-//W3C//DTD SVG 1.1//EN" "http://www.w3.org/Graphics/SVG/1.1/DTD/svg11.dtd">
<svg version="1.1" id="Capa_1" xmlns="http://www.w3.org/2000/svg" xmlns:xlink="http://www.w3.org/1999/xlink" x="0px" y="0px"
	 width="30px" height="30px" viewBox="0 0 30 30" enable-background="new 0 0 30 30" xml:space="preserve">
<g>
	<g>
		<g>
			<path fill="#262626" d="M4.431,29.029l0.1,0.152c0.266,0.409,0.685,0.688,1.181,0.782c0.555,0.106,1.153-0.03,1.639-0.375
				c7.613-5.391,14.207-11.983,19.597-19.597l0,0c0.344-0.486,0.479-1.083,0.375-1.639c-0.097-0.496-0.373-0.915-0.779-1.178
				l-0.16-0.105c-0.328-0.212-0.696-0.313-1.063-0.313c-0.643,0-1.282,0.311-1.69,0.887C18.505,14.88,12.238,21.146,5.001,26.271
				C4.096,26.914,3.845,28.125,4.431,29.029z M24.47,8.728c0.137-0.137,0.326-0.216,0.521-0.216c0.193,0,0.385,0.079,0.521,0.216
				c0.138,0.137,0.216,0.328,0.216,0.521c0,0.194-0.078,0.386-0.216,0.522c-0.139,0.138-0.328,0.216-0.521,0.216
				c-0.195,0-0.386-0.078-0.521-0.216c-0.137-0.137-0.217-0.328-0.217-0.522C24.253,9.056,24.333,8.866,24.47,8.728z M6.441,26.867
				c0.138-0.139,0.328-0.217,0.522-0.217c0.195,0,0.385,0.078,0.522,0.217c0.138,0.137,0.216,0.326,0.216,0.521
				c0,0.193-0.078,0.385-0.216,0.521c-0.137,0.138-0.327,0.216-0.522,0.216c-0.194,0-0.384-0.078-0.522-0.216
				c-0.137-0.139-0.216-0.328-0.216-0.521C6.225,27.193,6.304,27.004,6.441,26.867z"/>
			<path fill="#262626" d="M2.642,27.324c0.163-0.877,0.714-1.696,1.506-2.258c1.252-0.887,2.474-1.81,3.667-2.765v-7.886
				l1.631-1.631c0.139-0.139,0.217-0.326,0.217-0.522V3.024C9.662,1.357,8.305,0,6.637,0h-0.97C3.999,0,2.642,1.357,2.642,3.024
				V27.324L2.642,27.324z"/>
		</g>
	</g>
</g>
</svg>
