<?xml version="1.0" encoding="utf-8"?>
<!-- Generator: Adobe Illustrator 16.0.0, SVG Export Plug-In . SVG Version: 6.00 Build 0)  -->
<!DOCTYPE svg PUBLIC "-//W3C//DTD SVG 1.1//EN" "http://www.w3.org/Graphics/SVG/1.1/DTD/svg11.dtd">
<svg version="1.1" id="Capa_1" xmlns="http://www.w3.org/2000/svg" xmlns:xlink="http://www.w3.org/1999/xlink" x="0px" y="0px"
	 width="30px" height="30px" viewBox="0 0 30 30" enable-background="new 0 0 30 30" xml:space="preserve">
<g>
	<g>
		<g>
			<path fill="#262626" d="M26.94,11.616c-0.777-0.777-1.812-1.205-2.91-1.205s-2.133,0.428-2.91,1.205
				c-1.209,1.21-1.507,2.99-0.894,4.48l-2.318,0.464l0.094,1.935l3.522-0.705c0.715,0.552,1.587,0.852,2.506,0.852
				c1.1,0,2.133-0.428,2.91-1.205C28.545,15.832,28.545,13.221,26.94,11.616z M25.587,16.083c-0.416,0.416-0.969,0.645-1.557,0.645
				s-1.141-0.229-1.557-0.645c-0.858-0.858-0.858-2.255,0-3.113c0.416-0.416,0.969-0.645,1.557-0.645s1.141,0.229,1.557,0.645
				C26.445,13.828,26.445,15.225,25.587,16.083z"/>
			<path fill="#262626" d="M16.528,16.838l-1.509-1.51l-1.993-0.035L2.079,28.431c-0.317,0.38-0.292,0.939,0.059,1.289
				C2.324,29.906,2.568,30,2.813,30c0.217,0,0.435-0.073,0.613-0.223l13.214-11.01l0.033-0.007L16.528,16.838z"/>
			<path fill="#262626" d="M14.58,4.766c-0.054,0.049-0.107,0.099-0.159,0.15c-0.002,0.002-0.004,0.004-0.006,0.007
				c-0.003,0.003-0.006,0.006-0.009,0.009c-0.768,0.775-1.19,1.802-1.19,2.894c0,0.918,0.3,1.791,0.852,2.507l-0.721,3.603
				l1.971-0.096l0.441-2.207c0.492,0.203,1.024,0.31,1.572,0.31c1.101,0,2.133-0.429,2.91-1.206c0.777-0.777,1.206-1.811,1.206-2.91
				c0-1.099-0.429-2.133-1.206-2.91c-0.846-0.847-1.973-1.246-3.084-1.199c0.01-0.074,0.019-0.149,0.023-0.226
				c0.074-1.11-0.354-2.182-1.277-3.183c-0.358-0.389-0.964-0.414-1.353-0.056c-0.389,0.358-0.414,0.964-0.055,1.353
				c0.548,0.595,0.809,1.181,0.776,1.743C15.23,4.026,14.78,4.559,14.58,4.766z M15.759,6.285c0.03-0.026,0.069-0.062,0.116-0.107
				c0.415-0.367,0.936-0.552,1.455-0.552c0.563,0,1.128,0.215,1.558,0.644c0.416,0.416,0.645,0.968,0.645,1.556
				c0,0.588-0.229,1.141-0.645,1.557l0,0c-0.416,0.416-0.97,0.646-1.558,0.646S16.189,9.8,15.773,9.383
				c-0.416-0.416-0.645-0.968-0.645-1.557C15.129,7.245,15.354,6.699,15.759,6.285z"/>
		</g>
	</g>
</g>
</svg>
