<?xml version="1.0" encoding="utf-8"?>
<!-- Generator: Adobe Illustrator 16.0.0, SVG Export Plug-In . SVG Version: 6.00 Build 0)  -->
<!DOCTYPE svg PUBLIC "-//W3C//DTD SVG 1.1//EN" "http://www.w3.org/Graphics/SVG/1.1/DTD/svg11.dtd">
<svg version="1.1" id="Capa_1" xmlns="http://www.w3.org/2000/svg" xmlns:xlink="http://www.w3.org/1999/xlink" x="0px" y="0px"
	 width="30px" height="30px" viewBox="0 0 30 30" enable-background="new 0 0 30 30" xml:space="preserve">
<g>
	<g>
		<path fill="#262626" d="M30,9.286c0-0.196-0.078-0.384-0.217-0.523l-8.547-8.546C21.098,0.078,20.91,0,20.714,0
			s-0.384,0.078-0.522,0.217l-1.629,1.628L17.348,0.63c-0.289-0.289-0.758-0.289-1.046,0L0.629,16.302
			c-0.139,0.14-0.217,0.327-0.217,0.522s0.078,0.385,0.217,0.523l1.215,1.215l-1.628,1.629C0.078,20.33,0,20.518,0,20.714
			s0.078,0.384,0.217,0.522l8.546,8.547C8.902,29.922,9.09,30,9.286,30c0.196,0,0.384-0.078,0.523-0.217l1.628-1.629l1.215,1.217
			c0.139,0.139,0.327,0.216,0.523,0.216c0.196,0,0.384-0.077,0.523-0.216l15.673-15.673c0.288-0.289,0.288-0.757,0-1.046
			l-1.217-1.215l1.629-1.628C29.922,9.67,30,9.482,30,9.286z M22.543,9.953l0.145,0.144l-2.188,2.189l-0.144-0.144
			c-0.141-0.139-0.328-0.217-0.523-0.217c-0.196,0-0.384,0.078-0.521,0.217l-2.134,2.133c-0.151,0.152-0.229,0.363-0.215,0.578
			c0.043,0.574-0.165,1.135-0.567,1.54c-0.407,0.404-0.964,0.609-1.541,0.568c-0.216-0.016-0.426,0.063-0.578,0.215l-2.133,2.133
			c-0.289,0.289-0.289,0.758,0,1.047l0.144,0.144l-2.189,2.188l-0.144-0.145c-0.289-0.288-0.757-0.288-1.046,0l-1.152,1.152
			c-0.194,0.193-0.451,0.301-0.725,0.301c-0.274,0-0.532-0.105-0.726-0.301c-0.194-0.193-0.3-0.451-0.3-0.725
			c0-0.275,0.107-0.531,0.3-0.727l1.152-1.152c0.289-0.287,0.289-0.757,0-1.046l-0.144-0.144l2.189-2.189l0.143,0.145
			c0.139,0.139,0.327,0.217,0.523,0.217c0.196,0,0.384-0.078,0.523-0.217l2.133-2.133c0.152-0.152,0.23-0.363,0.214-0.578
			c-0.042-0.573,0.165-1.134,0.569-1.539c0.405-0.405,0.963-0.612,1.539-0.569c0.216,0.016,0.426-0.062,0.578-0.214l2.133-2.133
			c0.139-0.139,0.217-0.327,0.217-0.523c0-0.196-0.078-0.384-0.217-0.523l-0.144-0.144l2.188-2.189l0.144,0.144
			c0.289,0.289,0.759,0.289,1.046,0l1.075-1.076c0.194-0.194,0.451-0.3,0.726-0.3c0.275,0,0.532,0.107,0.727,0.3
			c0.193,0.194,0.301,0.452,0.301,0.726s-0.107,0.532-0.301,0.725l-1.076,1.076C22.254,9.196,22.254,9.665,22.543,9.953z"/>
	</g>
</g>
</svg>
