<?xml version="1.0" encoding="utf-8"?>
<!-- Generator: Adobe Illustrator 16.0.0, SVG Export Plug-In . SVG Version: 6.00 Build 0)  -->
<!DOCTYPE svg PUBLIC "-//W3C//DTD SVG 1.1//EN" "http://www.w3.org/Graphics/SVG/1.1/DTD/svg11.dtd">
<svg version="1.1" xmlns="http://www.w3.org/2000/svg" xmlns:xlink="http://www.w3.org/1999/xlink" x="0px" y="0px" width="80px"
	 height="105px" viewBox="0 0 80 105" enable-background="new 0 0 80 105" xml:space="preserve">
<g id="Capa_2" display="none">
	<rect x="-12.836" y="-1.933" display="inline" fill="#AD7C2D" width="106.94" height="108.363"/>
</g>
<g id="Capa_1">
	<path fill="#FFFFFF" d="M16.434,52.43c0,0-22.661,11.369-13.788,35.419c1.255,3.403,9.509,33.519,13.788,4.518
		c0,0,0.476-9.272,14.263-8.796L16.434,52.43z"/>
	<path fill="#F3F2F4" d="M63.567,52.44c0,0,22.66,11.37,13.786,35.42c-1.255,3.403-9.509,33.519-13.786,4.517
		c0,0-0.477-9.271-14.264-8.795L63.567,52.44z"/>
	<path fill="#FFFFFF" d="M28.825,91.413h6.09v6.227c0,2.808,2.276,5.084,5.083,5.084V0.13C39.977,0.143-6.349,26.294,28.825,91.413z
		"/>
	<path fill="#F3F2F4" d="M39.999,0.13L39.999,0.13l0,102.594h0c2.807,0,5.083-2.276,5.083-5.084v-6.227h6.09
		C86.353,26.279,39.999,0.13,39.999,0.13z"/>
	<circle fill="#7021AD" cx="47.501" cy="86.755" r="1.409"/>
	<circle fill="#7021AD" cx="32.515" cy="86.755" r="1.408"/>
	<path fill="#7021AD" stroke="#7021AD" stroke-miterlimit="10" d="M15.86,40.306c-0.237,2.801-0.288,5.758-0.117,8.875h24.254
		v-8.875H15.86z"/>
	<path fill="#5F219B" stroke="#7021AD" stroke-miterlimit="10" d="M64.14,40.306H39.998v8.875h24.259
		C64.429,46.063,64.376,43.106,64.14,40.306z"/>
	<path fill="#7021AD" d="M38.6,86.755c0,0.774,0.625,1.401,1.398,1.407v-2.815C39.225,85.353,38.6,85.98,38.6,86.755z"/>
	<path fill="#5F219B" d="M40.008,85.346c-0.003,0-0.007,0.001-0.01,0.001v2.815c0.003,0,0.007,0.001,0.01,0.001
		c0.778,0,1.409-0.63,1.409-1.408S40.787,85.346,40.008,85.346z"/>
</g>
</svg>
