<?xml version="1.0" encoding="utf-8"?>
<!-- Generator: Adobe Illustrator 16.0.0, SVG Export Plug-In . SVG Version: 6.00 Build 0)  -->
<!DOCTYPE svg PUBLIC "-//W3C//DTD SVG 1.1//EN" "http://www.w3.org/Graphics/SVG/1.1/DTD/svg11.dtd">
<svg version="1.1" id="Capa_1" xmlns="http://www.w3.org/2000/svg" xmlns:xlink="http://www.w3.org/1999/xlink" x="0px" y="0px"
	 width="100px" height="100px" viewBox="0 0 100 100" enable-background="new 0 0 100 100" xml:space="preserve">
<g>
	<radialGradient id="Bg1_1_" cx="50" cy="50" r="47.0994" gradientUnits="userSpaceOnUse">
		<stop  offset="0" style="stop-color:#EE9CA7"/>
		<stop  offset="1" style="stop-color:#8E2DE2"/>
	</radialGradient>
	<path id="Bg1" fill="url(#Bg1_1_)" d="M94.575,42.456c-0.465-2.477-1.127-4.885-1.974-7.204c0.125-1.088-0.01-2.283-0.243-3.256
		c-0.232-0.012-0.354-0.132-0.571-0.161c-0.049-0.24-0.165-0.446-0.16-0.693c-0.106-0.024-0.235,0.019-0.331-0.036
		c-0.167-0.258,0.023-0.19-0.24-0.369c0.075-1.821-0.619-2.442-1.583-3.663c-0.642-0.813-0.762-1.915-1.388-2.761
		c-0.77-0.046-1.354-0.536-1.965-0.941c-1.873-2.476-3.991-4.753-6.319-6.799c-0.441-1.206-0.597-1.289-1.819-1.681
		c-0.124-0.04-0.253-0.086-0.384-0.137c-2.932-2.27-6.146-4.191-9.583-5.702c-0.247-0.612-0.488-1.303-0.912-1.697
		c-1.49-0.319-2.839-0.452-4.247-0.208c-1.631-0.492-3.3-0.897-5.003-1.207L56.205,3.92c0,0-9.746-1.386-12.565,0
		c-0.534,0.262-1.454,1.884-1.454,1.884c-4.492,0.734-8.764,2.122-12.715,4.063c-0.831,0.29-1.668,0.591-2.519,0.762
		c-1.48,0.296-2.036,1.064-3.35,1.737c-1.123,0.576-2.806,0.228-3.247,1.901c-2.529,0.271-1.131,3.261-2.984,3.946
		c-0.011,0.11-0.028,0.221-0.046,0.331c-1.888,1.881-3.611,3.928-5.149,6.114c-1.322,0.478-2.733,1.169-3.143,2.542
		c-0.523,0.393-0.56,1.138-1.073,1.582c-0.372,0.321-1.011,0.591-1.446,0.777c-0.118,2.005-0.098,4.099-0.032,6.124
		c-1.296,3.664-2.14,7.541-2.462,11.565c-0.468,0.386-1.175,0.604-1.372,1.137c-0.136,0.371-0.087,1.176-0.12,1.526
		c-0.043,0.459,0,0.942,0,1.403c0,0.794-0.162,1.816,0.287,2.453c0.305,0.433,0.782,0.693,1.218,1.017
		c0.021,0.253,0.042,0.507,0.066,0.76c0.075-0.028,0.151-0.04,0.228-0.025c0.37,0.07,0.386,0.656,0.625,0.844
		c0.062,0.679-0.175,1.169-0.547,1.59c0.235,1.529,0.545,3.034,0.927,4.51c-0.494,1.511-0.797,3.099,0.181,4.29
		c0.762,0.928,1.024,0.811,1.225,2.067c0.163,1.023,0.579,1.803,1.067,2.688c0.753,1.364,1.103,3.745,2.25,4.761
		c0.443,0.393,1.12,0.544,1.874,0.612c1.671,2.424,3.57,4.679,5.667,6.734c0.033,0.351,0.07,0.705,0.122,1.064
		c0.316,2.202,2.266,3.199,4.127,4.043c0.796,0.868,1.658,1.742,2.856,2.17c0.903,0.321,1.74,0.71,2.514,0.367
		c0.126-0.056,0.246-0.129,0.362-0.217c1.134,0.625,2.299,1.202,3.489,1.731c0.558-0.135,1.108-0.285,1.646-0.47
		c1.483-0.509,2.334,0.213,3.366,1.098c1.366,1.173,2.812,1.021,4.284,1.81c0.403,0.216,0.768,0.485,1.124,0.763
		c2.639,0.474,5.357,0.722,8.132,0.722c6.419,0,12.53-1.324,18.074-3.712c1.335,0.079,2.645,0.022,3.83-0.398
		c2.369-0.84,4.763-2.45,6.562-3.9c0.479-0.639,1.073-1.26,1.24-2.054c0.086-0.412,0.115-0.733,0.145-1.017
		c1.907-1.644,3.677-3.442,5.29-5.376c0.828-0.233,1.96-0.332,2.596-0.921c0.549-0.507,0.788-1.615,1.115-2.324
		c0.853-1.846,2.115-3.513,2.446-5.489c0.058-0.34,0.076-0.673,0.07-1.003c1.605-3.392,2.806-7.012,3.54-10.799l2.975-2.424V44.712
		L94.575,42.456z"/>
	<radialGradient id="Bg2_1_" cx="50" cy="50" r="36.9144" gradientUnits="userSpaceOnUse">
		<stop  offset="0" style="stop-color:#7021AD"/>
		<stop  offset="1" style="stop-color:#52197E"/>
	</radialGradient>
	<path id="Bg2" fill="url(#Bg2_1_)" d="M84.937,44.087c-0.365-1.941-0.884-3.829-1.548-5.646c0.099-0.853-0.007-1.789-0.19-2.552
		c-0.182-0.009-0.276-0.104-0.447-0.126c-0.038-0.188-0.13-0.349-0.126-0.543c-0.083-0.019-0.184,0.015-0.259-0.027
		c-0.131-0.202,0.018-0.149-0.188-0.29c0.059-1.427-0.485-1.914-1.241-2.871c-0.503-0.637-0.597-1.501-1.087-2.164
		c-0.604-0.036-1.061-0.419-1.54-0.738c-1.468-1.94-3.128-3.726-4.953-5.329c-0.346-0.945-0.468-1.01-1.426-1.317
		c-0.098-0.031-0.198-0.068-0.301-0.108c-2.298-1.779-4.817-3.284-7.511-4.469c-0.193-0.479-0.383-1.021-0.715-1.33
		c-1.168-0.25-2.225-0.354-3.328-0.163c-1.279-0.386-2.587-0.704-3.922-0.946l-1.291-1.584c0,0-7.638-1.086-9.848,0
		c-0.418,0.206-1.139,1.477-1.139,1.477c-3.521,0.575-6.869,1.663-9.965,3.184c-0.651,0.227-1.308,0.464-1.974,0.598
		c-1.161,0.232-1.596,0.833-2.626,1.362c-0.88,0.452-2.199,0.178-2.544,1.49c-1.982,0.212-0.887,2.555-2.339,3.093
		c-0.008,0.086-0.022,0.173-0.036,0.259c-1.48,1.475-2.831,3.078-4.036,4.792c-1.036,0.375-2.142,0.917-2.463,1.992
		c-0.41,0.308-0.439,0.892-0.842,1.24c-0.291,0.251-0.792,0.463-1.133,0.609c-0.092,1.572-0.076,3.212-0.024,4.799
		c-1.017,2.872-1.677,5.911-1.93,9.065c-0.367,0.302-0.921,0.473-1.075,0.891c-0.107,0.291-0.069,0.922-0.095,1.196
		c-0.034,0.359,0,0.738,0,1.1c0,0.622-0.126,1.424,0.225,1.923c0.239,0.339,0.613,0.543,0.955,0.796
		c0.017,0.199,0.032,0.398,0.052,0.596c0.059-0.021,0.118-0.031,0.179-0.02c0.29,0.055,0.302,0.515,0.49,0.661
		c0.049,0.532-0.137,0.916-0.429,1.246c0.184,1.199,0.427,2.378,0.727,3.535c-0.387,1.184-0.625,2.428,0.142,3.361
		c0.597,0.728,0.803,0.636,0.96,1.621c0.128,0.802,0.453,1.412,0.836,2.106c0.59,1.069,0.864,2.935,1.763,3.73
		c0.348,0.308,0.877,0.427,1.469,0.48c1.31,1.899,2.798,3.667,4.441,5.277c0.026,0.275,0.055,0.553,0.096,0.835
		c0.247,1.726,1.776,2.508,3.234,3.169c0.624,0.68,1.299,1.365,2.239,1.7c0.708,0.252,1.364,0.557,1.97,0.288
		c0.099-0.044,0.193-0.102,0.284-0.17c0.889,0.489,1.801,0.942,2.734,1.356c0.438-0.104,0.869-0.223,1.291-0.368
		c1.162-0.398,1.83,0.167,2.638,0.861c1.07,0.919,2.204,0.8,3.358,1.418c0.316,0.169,0.602,0.38,0.881,0.598
		c2.068,0.371,4.198,0.565,6.374,0.565c5.032,0,9.82-1.038,14.166-2.909c1.046,0.062,2.072,0.018,3.002-0.313
		c1.856-0.658,3.731-1.92,5.142-3.058c0.375-0.5,0.842-0.986,0.973-1.609c0.067-0.322,0.09-0.574,0.113-0.796
		c1.495-1.289,2.881-2.698,4.146-4.214c0.649-0.183,1.537-0.261,2.035-0.722c0.43-0.397,0.617-1.266,0.874-1.822
		c0.668-1.446,1.658-2.752,1.917-4.302c0.045-0.266,0.06-0.527,0.055-0.786c1.259-2.657,2.199-5.495,2.774-8.464l2.332-1.899v-9.848
		L84.937,44.087z"/>
	<path fill="#2C1047" d="M27.264,41.255c1.098,0.592,2.711,1.864,3.937,1.098c0.819-0.512,1.431-1.417,1.852-2.305
		c-0.201-0.262-0.042-1.469-0.128-1.717c-0.062-0.075-0.183-0.256-0.167-0.309c-0.581-0.465-0.77-1.333-1.522-1.634
		c-0.028-0.089,0.043-0.118-0.002-0.22c-0.595,0.082-1.382,0.129-1.94,0.321c-0.64,0.423-1.453,1.048-1.89,1.626
		C26.995,38.654,27.264,41.255,27.264,41.255z"/>
	<path fill="#2C1047" d="M58.4,58.512c-0.292,1.18-1.101,3.013-0.08,3.983c0.682,0.649,1.686,1.006,2.627,1.188
		c1.157,0.224,2.804-1.688,3.126-2.6c0.304-0.858-1.4-2.582-2.118-2.917C60.789,57.622,59.528,58.093,58.4,58.512z"/>
	<path fill="#2C1047" d="M55.892,35.002c-0.347,1.062-0.649,2.253-0.48,3.404c0.888,0.039,1.894-0.144,2.767,0.011
		c0.773,0.138,1.361,0.832,2.225,0.868c0.147,0.166,0.041,0.069,0.258,0.143c0.052-0.923,1.942-4.331,0.283-4.783
		c-0.413-0.909-3.525-1.212-4.198-0.412L55.892,35.002z"/>
	<path fill="#2C1047" d="M29.444,67.14c-0.283,1.202,1.037,1.274,1.683,1.699c0.047-0.711,0.042-1.457,0.006-2.169
		c-0.476-0.023-0.964-0.017-1.445-0.018L29.444,67.14z"/>
	<path fill="#2C1047" d="M54.392,76.899c-0.035,0.159-0.002,0.376,0.014,0.533c0.478,0.33,0.858,0.895,1.618,0.732
		c0.457-0.416,0.312-1.425,0.273-2.073c-0.404-0.163-1.149-0.224-1.356,0.075L54.392,76.899z"/>
</g>
</svg>
