<?xml version="1.0" encoding="utf-8"?>
<!-- Generator: Adobe Illustrator 16.0.0, SVG Export Plug-In . SVG Version: 6.00 Build 0)  -->
<!DOCTYPE svg PUBLIC "-//W3C//DTD SVG 1.1//EN" "http://www.w3.org/Graphics/SVG/1.1/DTD/svg11.dtd">
<svg version="1.1" xmlns="http://www.w3.org/2000/svg" xmlns:xlink="http://www.w3.org/1999/xlink" x="0px" y="0px" width="30px"
	 height="30px" viewBox="0 0 30 30" enable-background="new 0 0 30 30" xml:space="preserve">
<g id="Capa_1" display="none">
	<g display="inline">
		<circle fill="#FFFFFF" cx="15" cy="15" r="2.917"/>
		<path fill="#FFFFFF" d="M0,0v30h30V0H0z M21.25,15c0,0.275-0.025,0.546-0.059,0.813l1.759,1.379c0.158,0.13,0.204,0.354,0.1,0.533
			l-1.666,2.889c-0.104,0.179-0.321,0.249-0.509,0.179L18.8,19.954c-0.429,0.333-0.899,0.608-1.408,0.82l-0.313,2.209
			c-0.033,0.195-0.204,0.35-0.413,0.35h-3.333c-0.208,0-0.379-0.154-0.413-0.35l-0.313-2.209c-0.508-0.212-0.979-0.491-1.408-0.82
			l-2.075,0.838c-0.188,0.075-0.404,0-0.508-0.179L6.95,17.725c-0.104-0.184-0.059-0.408,0.1-0.533l1.759-1.379
			C8.775,15.546,8.75,15.275,8.75,15c0-0.275,0.025-0.546,0.059-0.813L7.05,12.808c-0.158-0.129-0.204-0.354-0.1-0.533l1.667-2.888
			c0.104-0.179,0.321-0.25,0.508-0.179l2.075,0.837c0.429-0.333,0.9-0.608,1.408-0.821l0.313-2.208
			c0.033-0.196,0.204-0.35,0.413-0.35h3.333c0.209,0,0.38,0.154,0.417,0.35l0.313,2.208c0.509,0.212,0.979,0.492,1.408,0.821
			l2.075-0.837c0.188-0.075,0.404,0,0.509,0.179l1.667,2.888c0.104,0.184,0.059,0.408-0.101,0.533l-1.763,1.379
			C21.225,14.454,21.25,14.725,21.25,15z"/>
	</g>
</g>
<g id="Capa_2">
	<path fill="#FFFFFF" d="M0,0v30h30V0H0z M20.833,15.417v6.666h-4.166v-5h-3.333v5H9.167v-6.666h-2.5L15,7.917l8.333,7.5H20.833z"/>
</g>
<g id="Capa_3" display="none">
	<g display="inline">
		<path fill="#FFFFFF" d="M15,7c-4.41,0-8,3.591-8,8c0,4.411,3.59,8,8,8c4.41,0,8-3.589,8-8C23,10.591,19.41,7,15,7z M20,16h-4v4h-2
			v-4h-4v-2h4v-4h2v4h4V16z"/>
		<path fill="#FFFFFF" d="M0,0v30h30V0H0z M15,25C9.475,25,5,20.525,5,15C5,9.475,9.475,5,15,5c5.525,0,10,4.475,10,10
			C25,20.525,20.525,25,15,25z"/>
	</g>
</g>
</svg>
