<?xml version="1.0" encoding="utf-8"?>
<!-- Generator: Adobe Illustrator 16.0.0, SVG Export Plug-In . SVG Version: 6.00 Build 0)  -->
<!DOCTYPE svg PUBLIC "-//W3C//DTD SVG 1.1//EN" "http://www.w3.org/Graphics/SVG/1.1/DTD/svg11.dtd">
<svg version="1.1" id="Capa_1" xmlns="http://www.w3.org/2000/svg" xmlns:xlink="http://www.w3.org/1999/xlink" x="0px" y="0px"
	 width="30px" height="30px" viewBox="0 0 30 30" enable-background="new 0 0 30 30" xml:space="preserve">
<path fill="#F7F7F7" d="M0,0v30h30V0H0z M7.839,4.242l6.123-0.015c0.554-0.001,1.389,0.223,1.866,0.497l6.453,3.714
	c0.474,0.275,0.864,0.949,0.861,1.5l-0.008,2.712c-0.003,0.551-0.393,0.773-0.87,0.5L7.704,4.744
	C7.227,4.47,7.288,4.244,7.839,4.242z M22.15,25.772l-6.165-0.003c-0.554,0-1.392-0.227-1.866-0.503l-6.394-3.712
	c-0.475-0.276-0.865-0.954-0.865-1.502v-2.684c0-0.551,0.39-0.775,0.865-0.5l14.56,8.405C22.76,25.551,22.701,25.772,22.15,25.772z
	 M22.267,20.656l-2.33,1.357c-0.475,0.279-1.252,0.279-1.729,0.005l-10.482-6.05c-0.475-0.275-0.867-0.95-0.87-1.5l-0.013-2.721
	c0-0.551,0.385-0.775,0.862-0.501l14.56,8.406C22.741,19.926,22.741,20.38,22.267,20.656z M23.152,18.258
	c0,0.551-0.393,0.777-0.87,0.501L7.704,10.347c-0.477-0.274-0.477-0.725,0-0.999l2.341-1.352c0.477-0.274,1.257-0.274,1.731,0
	l10.52,6.078c0.477,0.276,0.864,0.951,0.861,1.501L23.152,18.258z"/>
</svg>
