<svg width="24" height="24" xmlns="http://www.w3.org/2000/svg">

 <g>
  <title>background</title>
  <rect fill="none" id="canvas_background" height="402" width="582" y="-1" x="-1"/>
 </g>
 <g>
  <title>Layer 1</title>
  <path fill="#ffffff" stroke="null" id="svg_1" fill-rule="evenodd" d="m21.356749,14.126534l-7.230215,0l0,7.230215c0,0.234769 -0.190537,0.425307 -0.425307,0.425307l-3.402454,0c-0.234769,0 -0.425307,-0.190537 -0.425307,-0.425307l0,-7.230215l-7.230215,0c-0.234769,0 -0.425307,-0.190537 -0.425307,-0.425307l0,-3.402454c0,-0.234769 0.190537,-0.425307 0.425307,-0.425307l7.230215,0l0,-7.230215c0,-0.234769 0.190537,-0.425307 0.425307,-0.425307l3.402454,0c0.234769,0 0.425307,0.190537 0.425307,0.425307l0,7.230215l7.230215,0c0.234769,0 0.425307,0.190537 0.425307,0.425307l0,3.402454c0,0.234769 -0.190537,0.425307 -0.425307,0.425307z" clip-rule="evenodd"/>
 </g>
</svg>